<svg xmlns="http://www.w3.org/2000/svg" width="400" height="200" viewBox="0 0 260 130">
  <g id="az" transform="translate(-3651 -1701)">
    <g id="az-2" data-name="az" transform="translate(3698 1727)">
      <g id="Group_1086" data-name="Group 1086">
        <g id="Group_955" data-name="Group 955" transform="translate(0 55.471)">
          <g id="Group_954" data-name="Group 954">
            <g id="Group_953" data-name="Group 953">
              <path id="Path_528" data-name="Path 528" d="M-306.105,535.061l-.524-1.167h-3.742l-.762,1.673c-.255.585.257.884.6,1.01v.161h-2.656v-.161c.3-.107.741-.312,1.164-1.215l3.014-6.552c-.042-.251-.548-.424-.682-.436v-.162h1.93l3.283,7.229a2.011,2.011,0,0,0,1.152,1.136v.161h-3.194v-.161c.292-.115.854-.425.632-1-.064-.168-.141-.331-.217-.516m-3.91-1.932h3.045l-1.5-3.412Zm7.777-3.819h.086c.068.168.261.168.387.168h5.219v.684l-4.65,5.942h3.64c.442,0,.838-.373,1.1-1.006h.095l-.294,1.64h-6.057v-.616l4.648-5.95h-3.5c-.306,0-.595.458-.721.9h-.095Zm14.944,1.2c0-.585-.189-.76-.555-.9v-.136h3.894c1.566,0,2.331.866,2.331,1.97s-.794,1.971-2.352,1.971l2.033,2.422a2.6,2.6,0,0,0,.941.758v.138h-1.7l-3.142-3.775V532.8h1.708a1.222,1.222,0,0,0,1.2-1.348,1.2,1.2,0,0,0-1.2-1.327h-1.679c-.212,0-.351.009-.351.341v5.268c0,.559.182.739.551.868v.138h-2.241V536.6c.366-.129.555-.31.555-.868Zm7.442,6.225V536.6c.359-.129.55-.31.55-.868v-5.218c0-.585-.191-.76-.55-.9v-.136h4.134c.99,0,2.249.3,2.249,1.8a1.886,1.886,0,0,1-.66,1.465,1.962,1.962,0,0,1,1.181,1.871,2.248,2.248,0,0,1-2.513,2.119Zm1.692-6.616v2.41h2.326a1.078,1.078,0,0,0,1.181-1.219c0-1.045-.672-1.191-1.227-1.191Zm0,5.774c.005.1.08.186.147.186h2.476a1.309,1.309,0,0,0,1.267-1.463c0-.731-.379-1.442-1.134-1.442h-2.757Zm11.686-.581-.448-1h-3.185l-.653,1.421c-.211.5.223.754.52.859v.138h-2.27V536.6c.264-.088.636-.263,1-1.034l2.564-5.579c-.032-.215-.462-.361-.581-.371v-.136h1.64l2.8,6.155a1.677,1.677,0,0,0,.988.966v.138h-2.72V536.6c.245-.094.725-.362.536-.847-.058-.147-.119-.282-.184-.437m-3.329-1.651h2.594l-1.276-2.909Zm9.171-.206v2.448a.7.7,0,0,0,.557.693v.138h-2.26V536.6a.688.688,0,0,0,.564-.682V533.75l-2.46-3.432a1.506,1.506,0,0,0-.825-.7v-.136h2.38v.136c-.211.07-.512.2-.25.567l1.854,2.622,2.03-2.613c.266-.341.007-.518-.277-.576v-.136h1.966v.136a.88.88,0,0,0-.6.38Zm7.381,2.811a2.537,2.537,0,0,0,2.478-1.651h.1l-.14,1.486a5.021,5.021,0,0,1-2.618.809,3.739,3.739,0,0,1-4.039-3.807,3.754,3.754,0,0,1,4.039-3.8,5.764,5.764,0,0,1,2.436.556.8.8,0,0,0,.107-.058h.084l-.13,1.61h-.091a2.192,2.192,0,0,0-2.226-1.465,2.922,2.922,0,0,0-2.919,3.142,2.923,2.923,0,0,0,2.919,3.182m9.088-.954-.446-1h-3.184l-.653,1.421c-.215.5.219.754.517.859v.138h-2.27V536.6c.264-.088.639-.263,1-1.034l2.564-5.579c-.037-.215-.464-.361-.581-.371v-.136h1.642l2.795,6.155a1.7,1.7,0,0,0,.98.966v.138h-2.72V536.6c.254-.094.731-.362.536-.847-.052-.147-.117-.282-.177-.437m-3.327-1.651h2.592l-1.279-2.909Zm13.455,3.073h-.812l-5.028-5.837v4.909a.735.735,0,0,0,.55.789v.138h-1.859V536.6a.727.727,0,0,0,.557-.789v-5.434a.772.772,0,0,0-.557-.762v-.136h1.7l4.7,5.4v-4.47a.749.749,0,0,0-.558-.8v-.136h1.853v.136a.743.743,0,0,0-.544.8Zm5.412-7.308c0-.69-.222-.894-.649-1.055v-.162h4.573c1.843,0,2.739,1.022,2.739,2.316s-.933,2.312-2.765,2.312l2.389,2.84a3.049,3.049,0,0,0,1.108.9v.161h-1.994l-3.691-4.435v-.194h2.005a1.439,1.439,0,0,0,1.411-1.58,1.413,1.413,0,0,0-1.411-1.557h-1.972c-.238,0-.4.012-.4.4v6.19c0,.651.208.868.642,1.017v.161h-2.632v-.161c.427-.149.649-.366.649-1.017Zm10.331.693V532.7h2.253c.271,0,.381-.313.46-.752h.1l-.14,2.1h-.086c-.04-.318-.112-.7-.331-.7h-2.253v2.544c0,.139.068.217.154.217h2.833c.536,0,.861-.585.98-1.006h.1l-.322,1.64h-5.473V536.6c.359-.129.544-.31.544-.868v-5.218c0-.585-.185-.76-.544-.9v-.136h5.339a.236.236,0,0,0,.2-.088h.072l-.157,1.64h-.084c-.021-.292-.1-.908-.414-.908Zm5.126,4.488h.1a2.491,2.491,0,0,0,2.637,1.669c.973,0,2.071-.424,2.071-1.405,0-.84-.884-1.1-1.866-1.356-1.311-.341-2.755-.7-2.755-2.177,0-1.394,1.493-2.039,2.952-2.039a3.6,3.6,0,0,1,1.946.479c.05-.019.108-.027.259-.087h.1v1.6h-.1c-.129-1.18-1.571-1.355-2.224-1.355-.941,0-1.789.369-1.789,1.18,0,.593,1.187.887,1.729,1.034,1.313.341,2.889.838,2.889,2.544,0,1.689-1.713,2.273-3.353,2.235a4.169,4.169,0,0,1-2.584-.851Zm7.725-4.1c0-.585-.184-.76-.546-.9v-.136h3.892c1.568,0,2.335.866,2.335,1.97,0,1.083-.779,1.971-2.335,1.971H-204.3v2.312c0,.559.188.739.553.868v.138h-2.239V536.6c.363-.129.546-.31.546-.868Zm1.486-.41c-.2,0-.347.019-.347.35V532.8h2.025a1.219,1.219,0,0,0,1.2-1.348,1.219,1.219,0,0,0-1.2-1.346Zm11.675,3.113c0,2.487-1.5,3.707-3.026,3.707-1.547,0-3.1-1.27-3.1-3.758v-2.653c0-.575-.189-.751-.556-.9v-.136h2.3v.136a.757.757,0,0,0-.537.811v2.615c0,2.127,1.042,3.2,2.123,3.2,1.029,0,2.044-1,2.044-3.005v-2.719c0-.575-.184-.751-.539-.9v-.136h1.852v.136c-.369.139-.556.314-.556.9Zm1.657,3.521V536.6c.359-.129.555-.31.555-.868v-5.218c0-.585-.2-.76-.555-.9v-.136h4.139c.98,0,2.251.3,2.251,1.8a1.87,1.87,0,0,1-.67,1.465,1.954,1.954,0,0,1,1.192,1.871,2.251,2.251,0,0,1-2.515,2.119Zm1.7-6.616v2.41h2.324a1.079,1.079,0,0,0,1.183-1.219c0-1.045-.674-1.191-1.224-1.191Zm0,5.774c.01.1.086.186.147.186h2.473a1.312,1.312,0,0,0,1.267-1.463c0-.731-.377-1.442-1.143-1.442h-2.744Zm11.762.842h-5.326V536.6a.724.724,0,0,0,.542-.789v-5.3c0-.585-.173-.751-.542-.9v-.136h2.235v.136c-.349.139-.546.331-.546.9v5.259c0,.263.091.333.241.333h2.513c.441,0,.851-.394,1.087-1.006h.1Zm3.448-7.259v.136c-.355.139-.55.331-.55.9v5.336a.666.666,0,0,0,.55.751v.138h-2.242V536.6a.678.678,0,0,0,.548-.751v-5.336c0-.585-.179-.751-.548-.9v-.136Zm-1.252-1.862a.6.6,0,0,1,.565.651.594.594,0,0,1-.558.656.6.6,0,0,1-.557-.665.577.577,0,0,1,.55-.642m4.9,1.862v.136a.8.8,0,0,0-.56.9v2.919l2.88-3.2a.081.081,0,0,0,.028-.049c.237-.264.093-.528-.252-.567v-.136h1.955v.136a3.435,3.435,0,0,0-1.067.858l-1.972,2.177,2.527,3.168a2.146,2.146,0,0,0,.943.782v.138h-1.75l-2.54-3.2-.752.857v1.416a.71.71,0,0,0,.56.789v.138h-2.249V536.6a.725.725,0,0,0,.555-.789v-5.3c0-.585-.186-.751-.555-.9v-.136Zm10.41,5.837-.444-1h-3.187l-.649,1.421c-.215.5.219.754.52.859v.138h-2.27V536.6c.261-.088.634-.263,1-1.034l2.569-5.579c-.042-.215-.471-.361-.588-.371v-.136h1.645l2.793,6.155a1.708,1.708,0,0,0,.984.966v.138h-2.718V536.6c.245-.094.725-.362.538-.847-.054-.147-.119-.282-.188-.437m-3.331-1.651h2.6l-1.279-2.909Zm6.108.945h.1a2.485,2.485,0,0,0,2.634,1.669c.976,0,2.074-.424,2.074-1.405,0-.84-.882-1.1-1.864-1.356-1.313-.341-2.76-.7-2.76-2.177,0-1.394,1.493-2.039,2.954-2.039a3.629,3.629,0,0,1,1.95.479c.047-.019.1-.027.259-.087h.1v1.6h-.1c-.135-1.18-1.575-1.355-2.228-1.355-.937,0-1.792.369-1.792,1.18,0,.593,1.187.887,1.734,1.034,1.314.341,2.887.838,2.887,2.544,0,1.689-1.717,2.273-3.353,2.235a4.2,4.2,0,0,1-2.588-.851Zm9.414-5.131v.136c-.345.139-.546.331-.546.9v5.336a.668.668,0,0,0,.546.751v.138h-2.238V536.6a.675.675,0,0,0,.548-.751v-5.336c0-.585-.178-.751-.548-.9v-.136Zm-145.088-.177a5.716,5.716,0,0,0-2.389.569.441.441,0,0,0-.124-.07h-.1l.04,1.629h.1a2.177,2.177,0,0,1,2.308-1.484,2.921,2.921,0,0,1,2.916,3.142c0,.052,0,.1,0,.15h-5.9a3.538,3.538,0,0,0,0,.38v.229h.021a3.266,3.266,0,0,0,2.144,2.88l.007.009a4.625,4.625,0,0,0,1.08.147,3.717,3.717,0,0,0,3.957-3.777,3.766,3.766,0,0,0-4.049-3.8m.107,6.936a3.11,3.11,0,0,1-.9-.135,2.3,2.3,0,0,1-1.36-2.256h4.842a2.566,2.566,0,0,1-2.583,2.391" transform="translate(313.186 -527.616)" fill="#967f30"/>
            </g>
          </g>
        </g>
        <g id="Group_1085" data-name="Group 1085" transform="translate(60.967)">
          <g id="Group_956" data-name="Group 956" transform="translate(30.237 13.246)">
            <path id="Path_529" data-name="Path 529" d="M-165.257,475.379a12.1,12.1,0,0,0-2.485-2.353,10.471,10.471,0,0,0,4.142-5.537c-.127-.053-.335-.032-.469-.082h.057l.042-.307a.1.1,0,0,0,.009-.031l.009-.076-.027,0c0-.011-.013-.014-.015-.024-.113-.012-.233-.017-.346-.032l-.142-.022a.277.277,0,0,1-.034-.008v-.368l-.512-.09a.624.624,0,0,1-.1-.044v-.5h-.11c-.223-.054-.272-.273-.428-.389-.194-.141-.307-.25-.5-.392a3.229,3.229,0,0,0-.131-.449l-.616-.04a.664.664,0,0,1,.035.327l.325.021.045.174.032.024.913.7c-.494-.013-.949-.033-1.462-.06a1.269,1.269,0,0,1-.017.153c.584.027,1.167.051,1.77.078v.32l-.013.035c.006-.021.013-.038.013-.038-.628-.02-1.25-.057-1.876-.087a2.149,2.149,0,0,1-.093.232l2.5.133.037.014.022.234h0l.013.161c.308.019.5.034.508.034l-.005.025h.005l-.053.253h0v.007c-.089.037-1.814-.065-3.766-.192a2.617,2.617,0,0,1-.294.088c-.023.038-.036.08-.062.115h0c1.511.088,3.028.153,4.616.2a13.047,13.047,0,0,1-4.211,5.255c-2.991,0-5.721.023-8.715.023a10.411,10.411,0,0,0,1.525-1.156,1.115,1.115,0,0,1-.322-.081,12.083,12.083,0,0,1-1.445,1.177c.023-.019.043-.038.066-.054a.672.672,0,0,1-.312.178.053.053,0,0,1,0,.017,1.556,1.556,0,0,1,.009.2.713.713,0,0,1,.245.129.037.037,0,0,0-.012-.01,12.734,12.734,0,0,1,1.957,1.676.58.58,0,0,1,.266-.086,9.928,9.928,0,0,0-2.178-1.734c2.525-.079,5.171.054,7.83.054a5.492,5.492,0,0,1,1.1.074,3.394,3.394,0,0,1,1.269.917,13.078,13.078,0,0,1,1.134,1.221,20.88,20.88,0,0,1,1.788,3.05c-1.518.094-2.9.182-4.322.261.027.034.057.067.088.1a.587.587,0,0,1,.05.082c1.913-.126,3.6-.228,3.7-.183l.053.251a4.3,4.3,0,0,1-.489.053h-.019l-.013.163h.016l-.036.224-2.457.141c.058.06.11.123.164.186.961-.066,1.63-.11,1.66-.086l.045.268a7.381,7.381,0,0,1-1.47.16,1.561,1.561,0,0,1,.084.158c.409-.027.825-.054,1.207-.074a.482.482,0,0,1-.166.1l-.273.166c.027.013.036.034,0,.035l-.068.005-.282.172.09,0-.1.008-.026.017c.056.037.112.075.169.111.327-.212.554-.527,1-.616v-.526c.206,0,.33-.074.524-.086l0-.007.082-.015v-.369a2.109,2.109,0,0,0,.565-.089l-.061-.412a2.981,2.981,0,0,0,.412-.066,8.234,8.234,0,0,0-1.657-3.184" transform="translate(177.145 -464.632)" fill="#967f30"/>
          </g>
          <g id="Group_957" data-name="Group 957" transform="translate(22.56 30.264)">
            <path id="Path_530" data-name="Path 530" d="M-188.572,490.03a.081.081,0,0,1-.024-.013.117.117,0,0,0,.021.015Z" transform="translate(188.596 -490.017)" fill="#967f30"/>
          </g>
          <g id="Group_958" data-name="Group 958" transform="translate(12.821 29.141)">
            <path id="Path_531" data-name="Path 531" d="M-192.359,488.366c-.119.093-.237.186-.349.286.176.027,5.563,1.652,7.406,2.221-.176,2.54-.412,5.54-.6,8.119-.029.385-.072,1.136-.072,1.136l-.175.044-.029.031-.693.915c.014-.552.038-1.043.068-1.637l0-.011c.095-1.876.253-3.905.365-5.762a6.7,6.7,0,0,1,.042-1.09,1.6,1.6,0,0,1,.321-.549c.19-.292.37-.556.518-.785a8.117,8.117,0,0,1-1.744-.394c-1.291-.371-4.354-1.4-5.672-1.728a53.113,53.113,0,0,0,7.061,2.367l-.152.184c-.14.349-.455.219-.711.181-2.017-.3-4.877-1.623-6.59-2.245a33.715,33.715,0,0,0,3.769,1.792c1.8.565,3.231.851,3.231.851l-.2.273c-.034,0-.07-.009-.1-.013a.6.6,0,0,1-.162.021,8.005,8.005,0,0,1-1.831-.216,9.018,9.018,0,0,1-4.708-2.18c-.111-.105-.244-.2-.354-.311a10.721,10.721,0,0,0,6.125,3.515c.142.022.271.063.42.076-.154,2.672-.453,8.387-.462,8.476l-.013.037-.232.023v0l-.162.014c-.021.307-.034.5-.034.51l-.028,0v0l-.251-.054v0l-.007,0c-.067-.16.32-5.649.491-8.178-.3-.131-.591-.279-.888-.416a11.153,11.153,0,0,1-5.029-4.077c.019.023.038.043.054.066a.85.85,0,0,1-.14-.188.306.306,0,0,0-.038.03.266.266,0,0,1-.292.021c-.018.027-.034.056-.056.084,0,0,.009-.009.009-.013s-2.085,3.192-5.151,4.115c-.257.108-.494.237-.766.333.149,2.417.567,8.058.486,8.229l-.253.054c-.008-.021-.027-.206-.052-.493l0-.013-.16-.017v.017l-.225-.038-.489-8.513c.174-.019.323-.062.489-.089a12.366,12.366,0,0,0,3.253-1.192c.126-.072.26-.143.384-.218a8.578,8.578,0,0,0,2.405-2.079,3.488,3.488,0,0,1-.255.253,10.232,10.232,0,0,1-6.363,2.4,1.361,1.361,0,0,1-.305,0c-.09.008-.168.026-.26.032l-.2-.273-.143-.19-.009-.015-.026-.036.92-.161a23.8,23.8,0,0,0,6.161-2.277,22.17,22.17,0,0,0-2.426.839,24.038,24.038,0,0,1-4.574,1.289c-.259.038-.363.04-.553-.243,2.043-.442,5.32-1.7,7.2-2.314a31.158,31.158,0,0,0-3.172.839c-1.228.357-2.442.789-3.717,1.139a.756.756,0,0,1-.746-.355c1.791-.628,4.1-1.256,5.973-1.83a6.435,6.435,0,0,1,1.431-.317.537.537,0,0,0-.045-.036.262.262,0,0,1-.092-.283l-7.584,2.26.816,9.719a3.154,3.154,0,0,0,.436.015c.184.47.634.673.742,1.219h.524c0,.208.076.331.086.525l.007.005.019.081h.368a2.093,2.093,0,0,0,.088.566l.415-.062a2.471,2.471,0,0,0,.064.412,8.238,8.238,0,0,0,3.183-1.657,12.137,12.137,0,0,0,2.356-2.485,10.462,10.462,0,0,0,5.534,4.142c.054-.127.034-.335.081-.467v.054l.308.046a.18.18,0,0,0,.031.006l.077.01,0-.029a.137.137,0,0,0,.024-.015c.009-.111.017-.234.032-.346l.023-.143c0-.01.007-.023.009-.034h.366l.09-.511c.014-.035.027-.07.043-.1h.5v-.109c.057-.223.271-.272.389-.428.14-.193.249-.308.394-.5a3.288,3.288,0,0,0,.449-.131l.652-9.8Zm-8.874,12.675-.164-.273c-.012.028-.033.036-.035,0s0-.047,0-.068l-.174-.285c0,.03,0,.06,0,.091,0-.034,0-.067-.009-.1l-.216-.353c0,.049,0,.1.009.147-.009-.053-.009-.11-.016-.162l0-.006-.2-.008-.52-6.6,0,.007c-.054-.726-.123-1.452-.168-2.179.154.236.418.535.611.824.169.257.325.339.39.576a5.533,5.533,0,0,1,.115,1.1c.122,2.314.355,5.157.479,7.455a.518.518,0,0,1-.1-.166m.615.3-.269.046a14.306,14.306,0,0,1-.2-2.053c-.169-2.152-.332-4.4-.474-6.58a18.482,18.482,0,0,0,4.44-.83,12.71,12.71,0,0,1-3.966,1.264c.041,2.539.534,8.068.466,8.153m6.455-3.681a5.373,5.373,0,0,1-.075,1.1,3.423,3.423,0,0,1-.918,1.271,13.626,13.626,0,0,1-1.22,1.133,20.688,20.688,0,0,1-3.05,1.789c-.18-2.915-.339-5.314-.459-8.494a10.09,10.09,0,0,0,5.777-4.629c.079,2.527-.054,5.169-.054,7.829m5.591,5.294a13.025,13.025,0,0,1-5.254-4.212c0-2.992-.028-5.721-.028-8.714a10.039,10.039,0,0,0,5.757,4.459c-.26,2.857-.4,5.54-.475,8.467m1.531-1.541h-.321l-.034-.015.037.015c.086-2.739.292-5.413.4-8.182a18,18,0,0,1-3.964-1.263,3.017,3.017,0,0,1,.868.217,9.6,9.6,0,0,0,3.451.646c-.2,2.936-.308,5.611-.436,8.583" transform="translate(203.123 -488.341)" fill="#967f30"/>
          </g>
          <g id="Group_959" data-name="Group 959" transform="translate(13.601 22.944)">
            <path id="Path_532" data-name="Path 532" d="M-201.956,479.123a.087.087,0,0,1,.011-.026l-.014.022Z" transform="translate(201.959 -479.098)" fill="#967f30"/>
          </g>
          <g id="Group_960" data-name="Group 960" transform="translate(13.544 22.406)">
            <path id="Path_533" data-name="Path 533" d="M-201.1,479.111a1.414,1.414,0,0,1-.5-.4c-.093-.076-.188-.154-.282-.229a.273.273,0,0,1-.1-.186c.032.234-.117.235-.03.4l.249.2a1.033,1.033,0,0,0,.059.116,1.353,1.353,0,0,0,.529.484l.022.01c0,.041-.174.617-.418,1.438.1.059.215.1.314.166,0,0,0,0,.007.005l.479-1.584.052-.146c-.126-.088-.251-.18-.373-.274" transform="translate(202.045 -478.295)" fill="#967f30"/>
          </g>
          <g id="Group_961" data-name="Group 961" transform="translate(13.846 18.534)">
            <path id="Path_534" data-name="Path 534" d="M-201.015,474.936c.083-.076.168-.154.249-.233l.007-.029c0-.017.013-.027.017-.042l-.628-2.114-.223.1c.085.29.174.588.258.863a6.35,6.35,0,0,1,.32,1.454" transform="translate(201.594 -472.519)" fill="#967f30"/>
          </g>
          <g id="Group_962" data-name="Group 962" transform="translate(0 14.272)">
            <path id="Path_535" data-name="Path 535" d="M-208.657,474.291a.341.341,0,0,1-.158-.237.9.9,0,0,1-.147-.1l.011.011a12.8,12.8,0,0,1-2.284-2.039c-.076.045-.158.078-.233.125,0,0-.011,0-.015,0A9.831,9.831,0,0,0-209,474.111c-2.526.078-5.169-.054-7.826-.054a5.418,5.418,0,0,1-1.1-.076,3.43,3.43,0,0,1-1.272-.917,13.938,13.938,0,0,1-1.134-1.219,20.925,20.925,0,0,1-1.788-3.052c1.6-.1,3.042-.188,4.543-.271a.164.164,0,0,0-.019-.014.608.608,0,0,1-.168-.168c-1.983.132-3.769.241-3.864.2l-.055-.251a4.568,4.568,0,0,1,.491-.054h.015l.017-.164h-.017l.037-.223,2.761-.158c-.056-.064-.113-.125-.168-.191-1.123.079-1.929.133-1.96.109l-.048-.27a10.075,10.075,0,0,1,1.736-.176c-.038-.051-.079-.1-.117-.154-.493.032-.984.064-1.444.088a.553.553,0,0,1,.17-.1l.274-.166c-.03-.013-.038-.034,0-.035l.068,0,.284-.174c-.029,0-.061,0-.093,0,.032,0,.068-.005.1-.01l.255-.156c-.013-.018-.027-.036-.039-.054h0c-.043-.062-.089-.128-.129-.188-.009-.013-.007-.03-.014-.042a1.776,1.776,0,0,0,0,.191c-.467.18-.674.631-1.22.738v.525c-.2,0-.329.075-.523.088l0,.005-.082.017v.369a2.034,2.034,0,0,0-.567.089l.064.412a2.67,2.67,0,0,0-.412.066,8.256,8.256,0,0,0,1.655,3.184,12.155,12.155,0,0,0,2.485,2.353,10.475,10.475,0,0,0-4.14,5.536c.125.054.333.032.465.081h-.052l-.048.309a.248.248,0,0,0,0,.029l-.011.078.029,0c0,.01.009.013.014.023.113.013.235.02.345.035l.145.019.035.009v.367l.512.09a.929.929,0,0,1,.1.046v.5h.11c.227.056.272.274.428.391.194.139.309.249.506.393a3.011,3.011,0,0,0,.128.448l.234.015c.008-.018.006-.036.015-.053a1.8,1.8,0,0,0,.075-.227c-.011-.013-.028-.026-.037-.039h-.032l-.021-.078c-.015-.035-.027-.072-.038-.107l-.017-.016-.913-.7c.382.009.743.025,1.118.044.013-.011.027-.017.039-.026a.486.486,0,0,1,.011-.085c.007-.015.014-.025.021-.038l-1.48-.065v-.32l.013-.034-.013.036c.548.017,1.09.054,1.639.078.045-.08.093-.158.14-.231l-2.3-.123-.036-.013-.022-.233h0l-.014-.164c-.308-.018-.5-.032-.51-.034l0-.025h0l.055-.252h0l0-.007c.084-.036,1.6.054,3.4.169.074-.07.154-.142.233-.212-1.35-.074-2.713-.126-4.13-.164a13.074,13.074,0,0,1,4.211-5.255c2.991,0,5.722-.025,8.713-.025a10.7,10.7,0,0,0-1.614,1.231c.032.024.065.046.1.072a.683.683,0,0,1,.088.127l.017,0a12.257,12.257,0,0,1,1.653-1.37c-.022.018-.043.038-.064.056a.612.612,0,0,1,.357-.194" transform="translate(222.247 -466.162)" fill="#967f30"/>
          </g>
          <g id="Group_963" data-name="Group 963" transform="translate(16.64 28.344)">
            <path id="Path_536" data-name="Path 536" d="M-197.417,487.178c0-.009-.007-.019-.009-.026s0,.017.007.025Z" transform="translate(197.426 -487.152)" fill="#967f30"/>
          </g>
          <g id="Group_964" data-name="Group 964" transform="translate(2.558 22.26)">
            <path id="Path_537" data-name="Path 537" d="M-205.138,483.762c-.023,0-.043.01-.066.013h.018s-3.733.782-6.554-.734c-.261-.1-.519-.18-.773-.306-1.606,1.815-5.3,6.1-5.476,6.163l-.22-.141c.009-.022.125-.166.31-.385l.011-.012-.1-.126a.05.05,0,0,0-.013.011l-.133-.184,5.677-6.366c.133.11.268.185.406.282a12.37,12.37,0,0,0,3.143,1.458c.142.04.282.081.424.118a8.682,8.682,0,0,0,3.172.233c-.121,0-.245,0-.359,0a10.252,10.252,0,0,1-6.2-2.8,1.7,1.7,0,0,1-.215-.213c-.07-.061-.14-.1-.209-.163l.052-.337.034-.231.009-.062c.5.351.611.426.764.534a23.69,23.69,0,0,0,5.969,2.746,22.674,22.674,0,0,0-2.31-1.122,23.971,23.971,0,0,1-4.146-2.324c-.212-.156-.284-.227-.219-.562,1.757,1.132,4.97,2.558,6.727,3.453a31.793,31.793,0,0,0-2.839-1.651c-1.116-.613-2.283-1.167-3.431-1.821a.755.755,0,0,1-.279-.779c1.712.821,3.79,2.011,5.52,2.93a6.556,6.556,0,0,1,1.15.721c.011-.119.021-.237.024-.358l-6.773-3.662-6.291,7.449a3.249,3.249,0,0,0,.3.323c-.2.459-.029.924-.343,1.386.128.125.249.247.373.37-.147.143-.181.287-.308.432l0,.008-.048.07.258.26a2.129,2.129,0,0,0-.335.465l.335.246a3.072,3.072,0,0,0-.242.339,8.236,8.236,0,0,0,3.42,1.08,12.153,12.153,0,0,0,3.421-.093,10.455,10.455,0,0,0,.985,6.842c.13-.051.261-.212.387-.271l-.038.037.188.251a.093.093,0,0,0,.018.025l.046.062.021-.018a.221.221,0,0,0,.028.008c.088-.072.18-.153.268-.223l.116-.086.029-.017.261.258.427-.3a.658.658,0,0,1,.1-.037l.337.338.012.013.078-.079c.2-.118.387,0,.577-.026.237-.038.4-.043.636-.08a3.188,3.188,0,0,0,.408.226l.019-.016a1.344,1.344,0,0,1-.479-.439l-.906.124c.221-.213.439-.413.66-.615a1.622,1.622,0,0,1-.054-.155c-.311.284-.617.565-.935.857l-.222-.226,0,0-.015-.034.017.036c.36-.338.723-.659,1.083-.989-.014-.1-.025-.192-.035-.29-.919.827-1.592,1.429-1.618,1.454l-.034.015-.182-.15h0l-.126-.1c-.23.2-.373.328-.384.337l-.014-.024,0,0-.137-.217,0,0,0-.006c.035-.083,1.156-1.083,2.495-2.259.008-.114.017-.224.029-.329-1,.9-2,1.82-3.022,2.791a13.076,13.076,0,0,1-.737-6.693c2.116-2.117,4.029-4.065,6.146-6.179a10.431,10.431,0,0,0-.29,2.24c.1-.034.2-.064.3-.091a12.8,12.8,0,0,1,.2-2.278c0,.029,0,.058-.007.086a.747.747,0,0,1,.075-.312h-.106a.294.294,0,0,1-.24-.111m-12.943,3.036.076-.312c-.027.012-.052,0-.027-.021s.03-.034.046-.051l.076-.323-.062.066c.021-.025.044-.051.064-.076l.1-.4c-.032.036-.064.073-.1.109.032-.042.07-.082.1-.124v-.008l-.131-.143,4.3-5.04v.011c.475-.556.944-1.115,1.423-1.662-.059.276-.082.674-.152,1.012-.059.306-.007.473-.131.685a5.351,5.351,0,0,1-.695.86c-1.551,1.725-3.393,3.9-4.932,5.611a.586.586,0,0,1,.045-.19m0,.487a14.138,14.138,0,0,1,1.312-1.591c1.4-1.641,2.874-3.347,4.319-4.989a18.206,18.206,0,0,0,3.726,2.553,12.678,12.678,0,0,1-3.7-1.911c-1.767,1.827-5.328,6.084-5.435,6.1Zm7.39,2.119a5.4,5.4,0,0,1-.832.725,3.415,3.415,0,0,1-1.547.25,13.532,13.532,0,0,1-1.663-.06,20.947,20.947,0,0,1-3.423-.892c1.935-2.191,3.518-4,5.684-6.331a10.075,10.075,0,0,0,7.352.811c-1.727,1.842-3.689,3.617-5.57,5.5" transform="translate(218.432 -478.078)" fill="#967f30"/>
          </g>
          <g id="Group_965" data-name="Group 965" transform="translate(16.329 28.053)">
            <path id="Path_538" data-name="Path 538" d="M-196.2,486.718l-.011,0h-1.675c.072.1.04.177.18.218l.319-.03a1.085,1.085,0,0,0,.127.04,1.373,1.373,0,0,0,.714-.032.064.064,0,0,0,.023-.008c.026.033.351.629.8,1.463.052-.03.111-.051.161-.081a.512.512,0,0,1,.185-.034Z" transform="translate(197.891 -486.718)" fill="#967f30"/>
          </g>
          <g id="Group_966" data-name="Group 966" transform="translate(28.348 27.159)">
            <path id="Path_539" data-name="Path 539" d="M-179.936,485.385c-.007,0-.021.007-.027.011a.12.12,0,0,1,.027-.007Z" transform="translate(179.963 -485.385)" fill="#967f30"/>
          </g>
          <g id="Group_967" data-name="Group 967" transform="translate(27.933 22.039)">
            <path id="Path_540" data-name="Path 540" d="M-166.988,488.418a.036.036,0,0,0,.007-.026c-.07-.089-.152-.178-.22-.269l-.086-.116c-.01-.008-.013-.021-.019-.031l.259-.257-.3-.428c-.013-.034-.027-.068-.036-.1l.351-.352-.076-.078c-.118-.2,0-.384-.028-.577-.036-.236-.04-.394-.078-.634a3.253,3.253,0,0,0,.223-.409l-6.466-7.393-6.877,3.689a.4.4,0,0,1,.029.131c.009.309.064.679.064,1.039,0-.013.011-.031.014-.042a1.361,1.361,0,0,0-.035-.717.033.033,0,0,0-.007-.021c.1-.081,5.1-2.765,6.812-3.669,1.673,1.92,3.629,4.208,5.32,6.165.251.292.748.851.748.851l-.09.156,0,.041.156,1.139c-.385-.4-.715-.763-1.113-1.2l0-.011c-1.257-1.393-2.579-2.943-3.816-4.332a6.753,6.753,0,0,1-.741-.8,1.683,1.683,0,0,1-.161-.613c-.076-.342-.133-.656-.187-.924a8.129,8.129,0,0,1-1.511.955c-1.177.651-4.073,2.088-5.233,2.79a53.19,53.19,0,0,0,6.667-3.321l.021.239c.147.343-.168.476-.373.631-1.639,1.212-4.6,2.3-6.248,3.071a33.7,33.7,0,0,0,3.933-1.4c1.675-.877,2.885-1.681,2.885-1.681l.054.335c-.028.026-.059.04-.086.064a.769.769,0,0,1-.1.13,7.936,7.936,0,0,1-1.447,1.141,9.015,9.015,0,0,1-4.872,1.789c-.15,0-.313.027-.469.027a10.717,10.717,0,0,0,6.815-1.84c.118-.087.237-.15.353-.245,1.779,2,5.606,6.25,5.665,6.319l.021.035-.152.182,0,0-.1.126c.2.231.327.374.335.385l-.022.013,0,0-.218.141,0,0-.007,0c-.16-.064-3.769-4.219-5.437-6.129-.306.121-.612.221-.92.333a11.15,11.15,0,0,1-6.439.672c.029,0,.058,0,.083.008a.858.858,0,0,1-.233-.036.986.986,0,0,1-.2.276.719.719,0,0,1,.027.1.044.044,0,0,0,0-.017,12.5,12.5,0,0,1,.194,2.74c.1.037.2.068.29.107a10.063,10.063,0,0,0-.347-2.914c1.84,1.73,3.616,3.693,5.5,5.574a5.383,5.383,0,0,1,.726.831,3.413,3.413,0,0,1,.248,1.546,13.884,13.884,0,0,1-.058,1.666,21.183,21.183,0,0,1-.894,3.42c-1.179-1.04-2.249-1.984-3.345-2.965,0,.086.006.172,0,.258,1.47,1.287,2.778,2.444,2.811,2.542l-.138.217a4.55,4.55,0,0,1-.387-.309l-.011-.013-.126.1a.063.063,0,0,0,.011.011l-.185.132-2.051-1.828c-.009.079-.021.16-.029.24.85.741,1.46,1.272,1.464,1.313l-.16.221A9.8,9.8,0,0,1-178.4,495.5l-.021.2c.371.325.74.649,1.079.954a.483.483,0,0,1-.192-.046l-.31-.074c.011.028,0,.05-.022.028l-.052-.046-.324-.077c.023.021.046.04.068.062-.027-.021-.052-.042-.076-.064l-.188-.045a.481.481,0,0,1-.041.17c.462.2.922.031,1.382.341l.37-.371c.148.147.29.179.434.31l.009,0,.069.046.261-.26a2.024,2.024,0,0,0,.461.337l.247-.337a3.145,3.145,0,0,0,.337.245,8.212,8.212,0,0,0,1.083-3.421,12.154,12.154,0,0,0-.095-3.422,10.475,10.475,0,0,0,6.844-.987c-.05-.127-.213-.259-.272-.387l.037.038.251-.186a.094.094,0,0,0,.027-.016l.061-.048Zm-.473-1.356-.034.015.036-.017c-1.876-1.994-3.624-4.031-5.5-6.066a17.948,17.948,0,0,1-3.7,1.91,2.974,2.974,0,0,1,.771-.462,9.534,9.534,0,0,0,2.894-1.984c1.932,2.219,3.748,4.185,5.758,6.378l-.223.223Zm.235,1.948a13.08,13.08,0,0,1-6.695.737c-2.118-2.115-4.063-4.028-6.179-6.145a10.025,10.025,0,0,0,7.224-.916c1.834,2.2,3.634,4.2,5.65,6.324" transform="translate(180.581 -477.748)" fill="#967f30"/>
          </g>
          <g id="Group_968" data-name="Group 968" transform="translate(26.767 15.68)">
            <path id="Path_541" data-name="Path 541" d="M-182.321,468.262l.009.025-.007-.024Z" transform="translate(182.321 -468.262)" fill="#967f30"/>
          </g>
          <g id="Group_969" data-name="Group 969" transform="translate(24.463 14.155)">
            <path id="Path_542" data-name="Path 542" d="M-183.157,467.794c-.046-.084-.029-.151-.156-.185l-.321.03a1.205,1.205,0,0,0-.125-.041,1.4,1.4,0,0,0-.717.032.052.052,0,0,0-.019.009c-.033-.039-.358-.638-.9-1.652-.066.111-.244.041-.357.092l.892,1.665c.57-.026,1.138.021,1.708.049" transform="translate(185.757 -465.988)" fill="#967f30"/>
          </g>
          <g id="Group_970" data-name="Group 970" transform="translate(27.232 2.508)">
            <path id="Path_543" data-name="Path 543" d="M-168.429,458.367c.147-.143.178-.287.306-.43l0-.009.048-.071-.259-.26a2.024,2.024,0,0,0,.337-.463l-.337-.247a2.693,2.693,0,0,0,.247-.337,8.266,8.266,0,0,0-3.422-1.08,12.127,12.127,0,0,0-3.424.094,10.446,10.446,0,0,0-.983-6.841c-.129.05-.258.211-.387.27l.036-.038-.182-.25a.079.079,0,0,0-.021-.025l-.046-.062-.022.017c-.009,0-.018,0-.027-.007-.091.072-.178.151-.269.223l-.115.086a.262.262,0,0,1-.029.018l-.261-.259-.427.3a.788.788,0,0,1-.1.037c-.112-.112-.225-.228-.339-.338l-.01-.013-.08.078c-.2.118-.387,0-.577.027-.117.018-.217.029-.316.039.008.007.008.019.015.025a.468.468,0,0,1,.14.186l.489-.064c-.154.144-.3.281-.449.416a1.648,1.648,0,0,0,.005.2c.256-.234.509-.464.768-.7l.226.225h0l.014.035-.016-.036c-.31.29-.621.565-.935.849a.447.447,0,0,0,.009.049.6.6,0,0,1,0,.266c.857-.77,1.468-1.316,1.492-1.339l.032-.015.183.149h0l.126.1c.228-.2.373-.328.384-.336l.014.023,0,0,.14.216,0,0,0,.006c-.034.081-1.063,1-2.325,2.112,0,.089.023.177.023.267,0,0,0,.007,0,.011.929-.838,1.853-1.692,2.806-2.6a13.089,13.089,0,0,1,.737,6.694c-2.117,2.117-4.029,4.063-6.145,6.181a10.6,10.6,0,0,0,.292-2.388.526.526,0,0,1-.31.056,12.421,12.421,0,0,1-.2,2.46c0-.029,0-.057.009-.084a.716.716,0,0,1-.062.286l.131.006a.287.287,0,0,1,.374-.211c1.684-1.771,3.568-3.488,5.381-5.3a5.422,5.422,0,0,1,.832-.725,3.415,3.415,0,0,1,1.547-.25,13.508,13.508,0,0,1,1.663.06,20.834,20.834,0,0,1,3.423.892c-1.932,2.191-3.52,4-5.682,6.331a10.112,10.112,0,0,0-6.981-.9.338.338,0,0,1,.076.154,10.645,10.645,0,0,1,6.168.8c.261.1.52.18.774.306,1.606-1.815,5.3-6.1,5.479-6.163l.217.14c-.009.024-.127.166-.309.385l-.012.013.1.125.011-.011.133.185-5.675,6.364c-.136-.109-.272-.184-.41-.281a12.382,12.382,0,0,0-3.143-1.457l-.424-.119a8.778,8.778,0,0,0-2.906-.247.043.043,0,0,1,0,.016h.093a10.266,10.266,0,0,1,6.2,2.8,1.448,1.448,0,0,1,.215.216c.07.061.14.1.211.16l-.054.337-.034.235-.009.061-.766-.536a23.07,23.07,0,0,0-5.831-2.7.21.21,0,0,1,0,.036c.517.309,1.706.83,2.178,1.038a24.088,24.088,0,0,1,4.144,2.324c.207.157.282.225.214.561-1.711-1.1-4.8-2.482-6.581-3.382a.226.226,0,0,0,0,.037c.577.406,2.265,1.308,2.7,1.544,1.12.613,2.283,1.164,3.433,1.821a.756.756,0,0,1,.278.778c-1.71-.82-3.788-2.011-5.52-2.93a6.908,6.908,0,0,1-.975-.59c-.017.1-.028.208-.046.312l6.619,3.578,6.3-7.448a3.318,3.318,0,0,0-.3-.325c.206-.459.031-.924.341-1.386Zm-9.279,4.348a12.588,12.588,0,0,1,3.7,1.911c1.769-1.826,5.327-6.084,5.438-6.1l.221.158a14.613,14.613,0,0,1-1.311,1.592c-1.407,1.642-2.875,3.347-4.32,4.987a18.3,18.3,0,0,0-3.726-2.552m9.308-3.207c-.016.017-.029.034-.045.052l-.076.323c.019-.019.04-.044.06-.066-.017.025-.043.051-.063.076l-.095.4c.031-.036.064-.073.1-.109-.033.043-.071.084-.1.123v.009l.131.143-4.3,5.04v-.011c-.475.554-.942,1.115-1.421,1.662.06-.276.083-.674.15-1.014.06-.3.009-.471.13-.683a5.767,5.767,0,0,1,.7-.862c1.551-1.724,3.4-3.9,4.931-5.611a.574.574,0,0,1-.043.192l-.076.309c.027-.011.05,0,.027.022" transform="translate(181.627 -448.615)" fill="#967f30"/>
          </g>
          <g id="Group_971" data-name="Group 971" transform="translate(15.46 16.429)">
            <path id="Path_544" data-name="Path 544" d="M-199.187,469.39a.143.143,0,0,1,.027-.01l-.027.007Z" transform="translate(199.187 -469.38)" fill="#967f30"/>
          </g>
          <g id="Group_972" data-name="Group 972" transform="translate(2.289 2.347)">
            <path id="Path_545" data-name="Path 545" d="M-202.6,460.193c-.038-.008-.1-.019-.147-.027-.034.065-.075.137-.107.2a6.5,6.5,0,0,1-.837,1.3,2.055,2.055,0,0,0-1.417.252h0a.2.2,0,0,0-.032.023.731.731,0,0,1-.117-.334.022.022,0,0,0,0,.017,12.168,12.168,0,0,1-.2-2.266,2.274,2.274,0,0,1-.283-.181,10.055,10.055,0,0,0,.349,2.515c-1.84-1.732-3.615-3.694-5.5-5.576a5.437,5.437,0,0,1-.726-.829,3.4,3.4,0,0,1-.249-1.548,13.118,13.118,0,0,1,.061-1.663,20.859,20.859,0,0,1,.89-3.422c1.126.994,2.161,1.91,3.21,2.849.007-.08.016-.158.025-.237-1.424-1.248-2.67-2.352-2.7-2.447l.137-.219a4.874,4.874,0,0,1,.387.311l.011.013.126-.105-.009-.011.184-.131,1.921,1.711c0-.087,0-.174,0-.261-.766-.668-1.3-1.138-1.309-1.176l.161-.221a7.691,7.691,0,0,1,1.163.938c0-.06.024-.121.034-.181v0c-.31-.274-.615-.543-.9-.8a.515.515,0,0,1,.192.045l.308.074c-.011-.026,0-.048.023-.026s.034.03.052.046l.323.076-.068-.062c.028.02.052.042.078.064l.1.023a.6.6,0,0,0,.011-.07.749.749,0,0,1,.059-.1c-.441-.161-.882-.026-1.32-.322l-.371.372c-.145-.146-.29-.18-.432-.309l-.011,0-.067-.046-.263.258a2.129,2.129,0,0,0-.461-.335l-.249.335a2.852,2.852,0,0,0-.337-.244,8.26,8.26,0,0,0-1.081,3.42,12.173,12.173,0,0,0,.1,3.424,10.452,10.452,0,0,0-6.843.985c.05.127.212.258.271.388l-.038-.039-.249.185a.164.164,0,0,0-.027.019l-.061.047.018.023c0,.009,0,.015-.009.024.072.089.154.181.221.271l.086.115a.214.214,0,0,1,.021.032l-.26.258.3.427a.731.731,0,0,1,.036.1c-.11.113-.228.227-.337.338l-.013.012.076.08c.118.2,0,.384.028.577.038.236.04.394.078.634a3.089,3.089,0,0,0-.223.408l6.467,7.394,7.045-3.78a.294.294,0,0,1-.013-.1,1.361,1.361,0,0,1,.1-.442,1.428,1.428,0,0,1-.084-.609.339.339,0,0,1-.109-.477c-.072.029-.126.031-.159.143l.033.319a.713.713,0,0,0-.041.125,1.418,1.418,0,0,0,.031.717.045.045,0,0,0,.009.02c-.1.078-5.1,2.763-6.815,3.668-1.668-1.921-3.626-4.206-5.314-6.165-.253-.293-.752-.853-.752-.853l.091-.154,0-.042-.154-1.14c.382.4.712.765,1.11,1.207l0,.009c1.257,1.394,2.579,2.942,3.815,4.333a6.875,6.875,0,0,1,.742.8,1.712,1.712,0,0,1,.16.614c.073.341.134.654.188.924a8.028,8.028,0,0,1,1.51-.955c1.179-.652,4.075-2.088,5.235-2.791a52.941,52.941,0,0,0-6.668,3.323l-.021-.241c-.147-.345.17-.477.373-.629,1.641-1.215,4.6-2.3,6.25-3.075a33.343,33.343,0,0,0-3.935,1.4c-1.675.874-2.885,1.681-2.885,1.681l-.052-.336a.958.958,0,0,1,.084-.064.624.624,0,0,1,.1-.129,7.891,7.891,0,0,1,1.447-1.142,9.012,9.012,0,0,1,4.872-1.789c.149,0,.312-.028.468-.028a10.73,10.73,0,0,0-6.815,1.842c-.113.086-.237.15-.351.245-1.781-2-5.609-6.249-5.67-6.321l-.013-.035.147-.18,0,0,.1-.123-.335-.385.023-.014,0,0,.215-.139h.008c.161.064,3.769,4.218,5.44,6.13.3-.123.61-.223.918-.334a11.139,11.139,0,0,1,6.439-.672c-.027,0-.059,0-.086-.009a.617.617,0,0,1,.4.122s-.007,0-.009.008a.317.317,0,0,1,.114-.023h.4a4.914,4.914,0,0,1,1.309-.091l.956-1.762a.924.924,0,0,1-.115,0m-15.744-1.922.034-.013a.34.34,0,0,1-.036.016c1.876,2,3.621,4.032,5.5,6.068a17.893,17.893,0,0,1,3.7-1.91,3.085,3.085,0,0,1-.771.46,9.585,9.585,0,0,0-2.9,1.984c-1.933-2.217-3.748-4.183-5.76-6.377l.225-.225Zm5.416,4.377c-1.838-2.2-3.635-4.2-5.652-6.323a13.083,13.083,0,0,1,6.7-.739c2.116,2.117,4.061,4.029,6.177,6.144a10.039,10.039,0,0,0-7.221.917" transform="translate(218.833 -448.375)" fill="#967f30"/>
          </g>
          <g id="Group_973" data-name="Group 973" transform="translate(21.119 13.602)">
            <path id="Path_546" data-name="Path 546" d="M-190.745,465.164l.024.013-.02-.015Z" transform="translate(190.745 -465.163)" fill="#967f30"/>
          </g>
          <g id="Group_974" data-name="Group 974" transform="translate(12.775)">
            <path id="Path_547" data-name="Path 547" d="M-192.921,459.681a.022.022,0,0,0,.008.007l7.83-2.335-.819-9.717a2.985,2.985,0,0,0-.438-.016c-.183-.47-.634-.675-.74-1.221h-.524c0-.2-.076-.33-.088-.523l-.007-.006-.015-.081h-.369a2.083,2.083,0,0,0-.088-.564l-.413.061a2.946,2.946,0,0,0-.064-.411,8.233,8.233,0,0,0-3.186,1.657,12.143,12.143,0,0,0-2.353,2.485,10.46,10.46,0,0,0-5.535-4.142c-.056.127-.032.334-.084.466v-.055l-.3-.046-.032,0-.076-.01-.007.029a.127.127,0,0,0-.022.014c-.011.113-.019.234-.033.347l-.019.142c0,.011-.007.022-.009.032h-.367l-.09.512c-.015.037-.031.068-.045.1h-.5v.11c-.055.224-.271.272-.39.428-.139.194-.249.309-.392.5a3.042,3.042,0,0,0-.448.131l-.653,9.8,7.672,2.315.249.089.019-.014c.022-.094.278-1.077,1.065-1.1a4.1,4.1,0,0,1,1.266,1.015M-199.636,445a13.091,13.091,0,0,1,5.255,4.21c0,2.995.024,5.722.024,8.715a10.042,10.042,0,0,0-5.753-4.458c.259-2.859.4-5.54.475-8.467m-1.53,1.542h.318l.036.013-.036-.013c-.085,2.739-.292,5.412-.4,8.182a17.935,17.935,0,0,1,3.969,1.264,3.115,3.115,0,0,1-.873-.219,9.6,9.6,0,0,0-3.45-.646c.2-2.936.307-5.61.439-8.581m6.486,11.9-.2.247c-.045.021-.081.041-.119.06a1.358,1.358,0,0,0-.481.529.081.081,0,0,0-.009.022c-.126-.015-5.562-1.653-7.413-2.225.178-2.54.413-5.539.6-8.119.027-.385.075-1.133.075-1.133l.172-.044.026-.034.695-.914c-.013.553-.036,1.045-.066,1.638v.009c-.1,1.877-.258,3.907-.367,5.764a7.24,7.24,0,0,1-.043,1.089,1.721,1.721,0,0,1-.318.55c-.19.292-.371.554-.523.784a8.166,8.166,0,0,1,1.743.393c1.293.373,4.357,1.4,5.673,1.728a53.139,53.139,0,0,0-7.063-2.365l.159-.184c.135-.349.451-.219.707-.182,2.017.3,4.877,1.623,6.591,2.247a33.4,33.4,0,0,0-3.771-1.793c-1.8-.565-3.229-.852-3.229-.852l.2-.273c.036,0,.067.01.1.013a.685.685,0,0,1,.163-.021,8.037,8.037,0,0,1,1.832.218,9.013,9.013,0,0,1,4.709,2.18c.109.1.244.2.353.31a10.747,10.747,0,0,0-6.123-3.516c-.142-.023-.273-.062-.42-.076.152-2.672.451-8.385.458-8.475l.016-.037.231-.023v0l.161-.014c.022-.306.034-.5.038-.51l.024.005v-.005l.251.054v0l.007,0c.066.161-.32,5.649-.491,8.178.306.132.593.28.887.417a11.15,11.15,0,0,1,5.031,4.077c-.019-.023-.04-.044-.054-.064a.608.608,0,0,1,.2.369c-.244.038-.239-.121-.4-.03m7.7-11.531.168.273c.011-.029.034-.037.034,0s0,.046,0,.069l.174.284c0-.031,0-.061,0-.091,0,.032,0,.066.006.1l.217.354-.007-.148c.007.054.009.11.016.162l0,.007.2.008.52,6.6-.007-.007c.057.726.124,1.453.169,2.18-.152-.236-.418-.536-.607-.823-.174-.259-.328-.339-.394-.576a5.557,5.557,0,0,1-.115-1.1c-.123-2.315-.355-5.158-.481-7.457a.493.493,0,0,1,.1.168m-.612-.3.268-.046a13.988,13.988,0,0,1,.2,2.052c.17,2.153.333,4.4.473,6.581a18.284,18.284,0,0,0-4.44.831,12.637,12.637,0,0,1,3.967-1.265c-.04-2.54-.536-8.07-.465-8.153m-6.455,3.681a5.442,5.442,0,0,1,.074-1.1,3.394,3.394,0,0,1,.918-1.27,13.561,13.561,0,0,1,1.219-1.134,20.79,20.79,0,0,1,3.05-1.789c.183,2.916.339,5.312.459,8.494a10.088,10.088,0,0,0-5.774,4.629c-.079-2.526.054-5.17.054-7.828m-.054,8.178a.673.673,0,0,1,.152-.318.093.093,0,0,1-.009.013s2.087-3.193,5.153-4.115c.258-.109.5-.237.764-.332-.147-2.417-.565-8.057-.483-8.231l.251-.054a4.1,4.1,0,0,1,.054.493l0,.016.161.015v-.016l.226.036.486,8.513c-.173.02-.321.062-.486.092a12.33,12.33,0,0,0-3.254,1.191c-.129.072-.259.143-.387.217a8.781,8.781,0,0,0-2.405,2.079c.084-.089.175-.174.253-.252a10.246,10.246,0,0,1,6.367-2.4,1.526,1.526,0,0,1,.3,0c.093-.005.169-.026.262-.031l.2.273.142.19.037.051c-.6.105-.733.131-.918.162a23.728,23.728,0,0,0-6.162,2.278,22.35,22.35,0,0,0,2.426-.839,23.92,23.92,0,0,1,4.574-1.288c.261-.037.363-.039.552.243-2.04.442-5.323,1.7-7.2,2.314a31.733,31.733,0,0,0,3.172-.841c1.228-.355,2.44-.788,3.717-1.139a.755.755,0,0,1,.747.355c-1.789.629-4.1,1.256-5.973,1.83a6.4,6.4,0,0,1-1.506.326,2.061,2.061,0,0,0-1.181-.823h0l-.04-.005" transform="translate(203.192 -444.874)" fill="#967f30"/>
          </g>
          <g id="Group_975" data-name="Group 975" transform="translate(12.719 12.981)">
            <path id="Path_548" data-name="Path 548" d="M-187.693,470.655v-3.88h-3.879l-2.538-2.538-2.538,2.538h-3.933v3.932l-2.7,2.7,2.7,2.7v3.64h3.638l2.781,2.78,2.779-2.78h3.689v-3.693l2.7-2.7Zm-.518,5.163v3.376h-3.376l-2.543,2.541-2.542-2.541H-200v-3.328l-2.464-2.466,2.464-2.465v-3.6h3.6l2.322-2.323,2.322,2.323h3.546v3.547l2.465,2.466Z" transform="translate(203.275 -464.237)" fill="#967f30" fill-rule="evenodd"/>
          </g>
          <g id="Group_976" data-name="Group 976" transform="translate(15.988 22.087)">
            <path id="Path_549" data-name="Path 549" d="M-193.567,483.579l.055-.1a.346.346,0,0,0,.03-.218l-.008-.09.055.045c.06.051.119.1.179.139l.04.028Zm6.8-4.878a.013.013,0,0,0-.008-.017.012.012,0,0,0-.016.008c-.062.175-.132.357-.2.51a.623.623,0,0,1-.186.168.562.562,0,0,0,.115-.269,2.759,2.759,0,0,0,.243-.6.013.013,0,0,0-.009-.016.014.014,0,0,0-.016.009,2.9,2.9,0,0,1-.206.535,1.7,1.7,0,0,0,.009-.231,2.381,2.381,0,0,0,.191-.565.012.012,0,0,0-.01-.015.014.014,0,0,0-.017.009,2.44,2.44,0,0,1-.165.512c0-.051,0-.1,0-.137s0-.046,0-.068a6.57,6.57,0,0,0,.166-.7.013.013,0,0,0-.011-.015.012.012,0,0,0-.015.011,6.671,6.671,0,0,1-.186.756,1.018,1.018,0,0,1-.062.083c-.01.013-.019.023-.025.032l-.091.135c.072-.222.145-.472.186-.666a.013.013,0,0,0-.011-.016.012.012,0,0,0-.016.01c-.048.223-.137.521-.215.764a1.114,1.114,0,0,0-.129.281.747.747,0,0,1,.013-.29,6.754,6.754,0,0,0,.226-.705.014.014,0,0,0-.008-.016.015.015,0,0,0-.017.009,6.545,6.545,0,0,1-.279.836l0,.007a1.22,1.22,0,0,0-.192.4,1.5,1.5,0,0,1,.133-.622,5.394,5.394,0,0,1-4.756,3.189c-.056,0-.113,0-.17,0a5.4,5.4,0,0,1-5.183-3.9c-.068-.1-.162-.192-.258-.192a.172.172,0,0,0-.126.07c-.185.2.049.432.078.455a.132.132,0,0,1,.038.109c-.006.032-.03.056-.076.073a.2.2,0,0,0-.135.156.266.266,0,0,0,.017.126l.025.059-.063-.009a.3.3,0,0,0-.048,0,.2.2,0,0,0-.139.042.063.063,0,0,0-.02.059c.019.152.22.3.22.3a.1.1,0,0,0,.08.116.277.277,0,0,0,.083.013l.036,0a.456.456,0,0,0,.055-.007c-.1.094-.033.529.4.573a.347.347,0,0,0,.063,0c-.2.272.142.412.14.522,0,.045-.056.091-.1.119-.068.04-.148.068-.148.17,0,.119.068.236.343.236.1,0,.2.008.2.076,0,.029-.038.06-.076.086s-.107.071-.107.131c0,.015,0,.147.2.212l.082.028-.079.038a.121.121,0,0,0-.078.107c0,.06.05.118.161.162a.878.878,0,0,0,.252.056l0,.013.01.013a.091.091,0,0,0,.064.035l.034,0v.035a.154.154,0,0,0,.056.113,1.052,1.052,0,0,0,.146.123l.086.06-.105,0a.339.339,0,0,0-.328.229.21.21,0,0,0,.037.168.281.281,0,0,0,.192.1h.019a.6.6,0,0,0,.138-.023c.086-.022.117-.022.154.093.03.092.057.158.143.158h.054s-.111.322.023.44a.1.1,0,0,0,.058.015c.073,0,.17-.091.247-.184a.318.318,0,0,1,.2-.135h.012l.009,0a.351.351,0,0,0,.113.04.122.122,0,0,1,.091.086.117.117,0,0,1-.039.123.311.311,0,0,0-.084.215.256.256,0,0,0,.068.192.248.248,0,0,0,.183.072.261.261,0,0,0,.221-.093.32.32,0,0,0,.078-.22.107.107,0,0,1,.019-.089.07.07,0,0,1,.056-.024.1.1,0,0,1,.061.021.264.264,0,0,0,.154.062.18.18,0,0,0,.113-.042.147.147,0,0,0,.059-.074l.019-.054.04.041a.186.186,0,0,0,.136.058.218.218,0,0,0,.135-.04l.053-.04,0,.066v.009a.121.121,0,0,0,.052.091c.072.045.2-.014.2-.014s-.194.113-.22.135a.052.052,0,0,0-.016.046c.006.064.121.087.2.087a.368.368,0,0,0,.078-.008.465.465,0,0,0,.1-.04,2.815,2.815,0,0,1,.577-.33,5.828,5.828,0,0,0-.512.335.1.1,0,0,0-.037.092c.017.075.171.088.215.088a.572.572,0,0,0,.294-.088h0l.009-.01,0,0a1.6,1.6,0,0,1,.3-.257l.018-.011.019.011c.113.064.347.2.472.276.014.009.028.016.04.023v0l.042.027a.134.134,0,0,0,.062.019.8.8,0,0,0,.105.008c.217,0,.371-.087.375-.163a.064.064,0,0,0-.044-.066l0,0c-.1-.044-.467-.215-.719-.337l.21.021.017,0a2.486,2.486,0,0,1,.609.294l.006,0a.267.267,0,0,0,.12.026c.082,0,.22-.034.234-.105a.09.09,0,0,0-.052-.094l-.81-.322.018-.065v0a13.146,13.146,0,0,0,1.372.5l-.04.034a1.154,1.154,0,0,1-.567.2h0a1.435,1.435,0,0,0,.33.03,1.8,1.8,0,0,0,.741-.176,2.379,2.379,0,0,1,.07-.363l.007-.025.22-.005-.045.059a.663.663,0,0,0-.089.169,2.89,2.89,0,0,0,.49-.269.731.731,0,0,0,.15-.3.07.07,0,0,0-.018-.027,6.226,6.226,0,0,1-.989.036l.07-.042a3.011,3.011,0,0,0,.987-.18c.051-.018.1-.034.154-.047a2.676,2.676,0,0,0,.63-.277.014.014,0,0,0,.005-.019.015.015,0,0,0-.018,0,2.391,2.391,0,0,1-.833.322,1.115,1.115,0,0,1-.478-.1,2.182,2.182,0,0,0,1.14-.339,2.213,2.213,0,0,0,.573-.341.013.013,0,0,0,0-.019.015.015,0,0,0-.019,0,2.057,2.057,0,0,1-.445.282,1.4,1.4,0,0,1-.605.042,1.889,1.889,0,0,0,.726-.3,4.576,4.576,0,0,0,.731-.46.012.012,0,0,0,0-.018.015.015,0,0,0-.02,0,4.5,4.5,0,0,1-.585.382,1.2,1.2,0,0,1-.474,0,1.418,1.418,0,0,0,.827-.387,3.641,3.641,0,0,0,.532-.417.013.013,0,0,0,0-.019.014.014,0,0,0-.019,0,3.713,3.713,0,0,1-.465.373,1.235,1.235,0,0,1-.52.058,1.157,1.157,0,0,0,.7-.384,3.794,3.794,0,0,0,.442-.414.013.013,0,0,0,0-.018.013.013,0,0,0-.019,0,3.811,3.811,0,0,1-.327.315.569.569,0,0,1-.3.074,1.417,1.417,0,0,0,.514-.441,4.4,4.4,0,0,0,.534-.68.013.013,0,0,0,0-.018.013.013,0,0,0-.019,0,4.4,4.4,0,0,1-.5.64,1.206,1.206,0,0,1-.234.032c.141-.059.221-.231.384-.461a3.259,3.259,0,0,0,.406-.567.013.013,0,0,0-.005-.019.013.013,0,0,0-.017,0,3.254,3.254,0,0,1-.314.459.321.321,0,0,1-.185.094,1.766,1.766,0,0,0,.287-.432,2.28,2.28,0,0,0,.279-.5.013.013,0,0,0-.007-.017.012.012,0,0,0-.017.006,2.136,2.136,0,0,1-.287.507.445.445,0,0,1-.148.091,1.216,1.216,0,0,0,.279-.574,5.152,5.152,0,0,0,.237-.579" transform="translate(198.399 -477.819)" fill="#13110c"/>
          </g>
          <g id="Group_977" data-name="Group 977" transform="translate(16.85 24.27)">
            <path id="Path_550" data-name="Path 550" d="M-196.159,482.549c0-.075.06-.126.123-.176.022-.017.027-.028.027-.03s-.007-.036-.1-.112a.391.391,0,0,1-.1-.115c-.062-.055-.126-.116-.191-.184a.722.722,0,0,1-.123.009,1.785,1.785,0,0,1-.322-.037.014.014,0,0,1-.011-.017.014.014,0,0,1,.016-.01,1.362,1.362,0,0,0,.416.032,4.326,4.326,0,0,1-.486-.638.016.016,0,0,1,.006-.017.012.012,0,0,1,.018,0,4.2,4.2,0,0,0,.475.624,2.249,2.249,0,0,1,.013-.435.015.015,0,0,1,.017-.012.013.013,0,0,1,.01.014,2.231,2.231,0,0,0-.01.464c.05.054.1.1.148.146a.3.3,0,0,1-.011-.1.273.273,0,0,1,.14-.216.335.335,0,0,1,.169-.052.211.211,0,0,1,.038,0,.7.7,0,0,0-.029-.23,1.363,1.363,0,0,1-.172-.184.3.3,0,0,0-.241.036c-.056.062-.2.141-.276-.019-.084-.183-.16-.285-.343-.178s-.089.3,0,.381.208.182.052.272c-.127.073-.212.082-.212.18,0,.072.032.177.327.177.116,0,.256.017.248.131-.009.143-.211.123-.212.213s.1.187.346.2a.407.407,0,0,0,.255-.072.123.123,0,0,1-.009-.055" transform="translate(197.114 -481.075)" fill="#005641"/>
          </g>
          <g id="Group_978" data-name="Group 978" transform="translate(16.485 15.498)">
            <path id="Path_551" data-name="Path 551" d="M-192.264,467.991a5.393,5.393,0,0,0-5.393,5.394,5.393,5.393,0,0,0,5.393,5.393,5.392,5.392,0,0,0,5.393-5.393,5.393,5.393,0,0,0-5.393-5.394" transform="translate(197.657 -467.991)" fill="#bc9d00"/>
          </g>
          <g id="Group_979" data-name="Group 979" transform="translate(16.879 15.886)">
            <path id="Path_552" data-name="Path 552" d="M-192.065,468.57q.246,0,.491.024c.162.016.326.041.487.072s.318.072.475.119.31.1.462.166.3.133.444.211a4.639,4.639,0,0,1,.422.253c.137.091.268.188.395.292a4.867,4.867,0,0,1,.364.331c.115.115.226.237.33.363a4.548,4.548,0,0,1,.292.395c.091.136.174.276.252.421s.147.293.211.443.118.306.166.463.087.316.119.476.056.322.072.486.024.328.024.491-.008.328-.024.491a4.892,4.892,0,0,1-.072.485q-.048.242-.119.477c-.048.158-.1.311-.166.463s-.133.3-.211.443-.161.285-.252.421a4.559,4.559,0,0,1-.292.395c-.1.127-.215.248-.33.363a4.581,4.581,0,0,1-.364.331,4.68,4.68,0,0,1-.395.292c-.137.092-.277.176-.422.254s-.293.147-.444.209-.3.118-.462.166-.316.086-.475.119-.324.056-.487.072-.326.024-.491.024-.327-.008-.491-.024-.325-.039-.486-.072-.32-.072-.476-.119-.311-.1-.463-.166-.3-.133-.444-.209-.284-.162-.421-.254a4.475,4.475,0,0,1-.395-.292,4.71,4.71,0,0,1-.365-.331,4.715,4.715,0,0,1-.33-.363c-.1-.126-.2-.258-.293-.395a4.841,4.841,0,0,1-.251-.421c-.077-.145-.147-.293-.211-.443s-.118-.306-.166-.463-.086-.315-.119-.477-.055-.322-.072-.485-.023-.326-.023-.491.008-.328.023-.491.04-.325.072-.486.072-.32.119-.476.1-.311.166-.463.133-.3.211-.443a4.85,4.85,0,0,1,.251-.421c.092-.137.189-.269.293-.395s.214-.248.33-.363.237-.227.365-.331a4.761,4.761,0,0,1,.395-.292,4.627,4.627,0,0,1,.421-.253c.145-.077.293-.148.444-.211s.305-.117.463-.166.316-.086.476-.119.325-.056.486-.072.326-.024.491-.024" transform="translate(197.07 -468.57)" fill="#00b4eb"/>
          </g>
          <g id="Group_980" data-name="Group 980" transform="translate(17.645 16.653)">
            <path id="Path_553" data-name="Path 553" d="M-191.688,469.714a4.057,4.057,0,0,1,.414.021,3.959,3.959,0,0,1,.412.06c.137.027.271.061.4.1a4.136,4.136,0,0,1,.392.14,3.959,3.959,0,0,1,.376.178c.123.066.242.137.357.214s.227.16.335.248a3.809,3.809,0,0,1,.308.279q.147.148.279.308c.088.108.172.219.249.335s.148.235.213.358.125.247.178.375.1.259.14.393a4.094,4.094,0,0,1,.1.4c.026.135.048.273.061.412a4.094,4.094,0,0,1,.02.416,4.117,4.117,0,0,1-.02.416c-.013.137-.035.274-.061.411s-.06.271-.1.4-.087.262-.14.39-.113.255-.178.377-.137.241-.213.357a4.034,4.034,0,0,1-.249.333,3.949,3.949,0,0,1-.279.308,4.094,4.094,0,0,1-.308.28c-.107.088-.219.17-.335.247s-.234.148-.357.214a4.109,4.109,0,0,1-.376.178c-.128.053-.258.1-.392.141s-.266.073-.4.1-.272.047-.412.061-.276.019-.414.019-.276-.007-.416-.019-.276-.035-.412-.061-.27-.062-.4-.1-.264-.088-.393-.141-.253-.113-.377-.178-.241-.137-.355-.214-.226-.16-.335-.247-.211-.182-.308-.28a3.578,3.578,0,0,1-.279-.308c-.088-.106-.172-.219-.249-.333s-.148-.235-.213-.357a3.952,3.952,0,0,1-.178-.377,4.1,4.1,0,0,1-.14-.39c-.04-.133-.074-.267-.1-.4s-.046-.273-.061-.411-.02-.278-.02-.416.007-.278.02-.416.036-.277.061-.412.062-.271.1-.4a4.1,4.1,0,0,1,.14-.393,3.831,3.831,0,0,1,.178-.375c.065-.123.137-.242.213-.358s.161-.227.249-.335a4.008,4.008,0,0,1,.279-.308,3.908,3.908,0,0,1,.308-.279c.109-.088.219-.17.335-.248s.234-.148.355-.214.249-.125.377-.178a4.15,4.15,0,0,1,.393-.14c.131-.04.266-.074.4-.1a4.027,4.027,0,0,1,.412-.06,4.112,4.112,0,0,1,.416-.021" transform="translate(195.927 -469.714)" fill="#e63337"/>
          </g>
          <g id="Group_981" data-name="Group 981" transform="translate(18.413 17.419)">
            <path id="Path_554" data-name="Path 554" d="M-191.311,470.857a3.43,3.43,0,0,1,.677.067,3.336,3.336,0,0,1,.651.2,3.385,3.385,0,0,1,.6.319,3.572,3.572,0,0,1,.527.432,3.535,3.535,0,0,1,.432.527,3.461,3.461,0,0,1,.32.6,3.35,3.35,0,0,1,.2.65,3.385,3.385,0,0,1,.068.678,3.379,3.379,0,0,1-.068.676,3.348,3.348,0,0,1-.2.652,3.51,3.51,0,0,1-.32.6,3.456,3.456,0,0,1-.432.526,3.493,3.493,0,0,1-.527.432,3.4,3.4,0,0,1-.6.322,3.422,3.422,0,0,1-.651.2,3.478,3.478,0,0,1-.677.068,3.477,3.477,0,0,1-.677-.068,3.4,3.4,0,0,1-.65-.2,3.358,3.358,0,0,1-.6-.322,3.46,3.46,0,0,1-.527-.432,3.416,3.416,0,0,1-.432-.526,3.466,3.466,0,0,1-.32-.6,3.349,3.349,0,0,1-.2-.652,3.48,3.48,0,0,1-.067-.676,3.485,3.485,0,0,1,.067-.678,3.351,3.351,0,0,1,.2-.65,3.419,3.419,0,0,1,.32-.6,3.494,3.494,0,0,1,.432-.527,3.538,3.538,0,0,1,.527-.432,3.345,3.345,0,0,1,.6-.319,3.309,3.309,0,0,1,.65-.2,3.43,3.43,0,0,1,.677-.067" transform="translate(194.782 -470.857)" fill="#5ca62c"/>
          </g>
          <g id="Group_982" data-name="Group 982" transform="translate(21.791 26.314)">
            <path id="Path_555" data-name="Path 555" d="M-189.742,484.194a.459.459,0,0,1,.131.245c.1-.057.234-.211.19-.282-.034-.054-.2-.042-.32.036" transform="translate(189.743 -484.125)" fill="#bc9d00"/>
          </g>
          <g id="Group_983" data-name="Group 983" transform="translate(21.599 26.477)">
            <path id="Path_556" data-name="Path 556" d="M-190,484.367a.033.033,0,0,0-.032.034.032.032,0,0,0,.032.034.033.033,0,0,0,.034-.034.033.033,0,0,0-.034-.034" transform="translate(190.03 -484.367)" fill="#bc9d00"/>
          </g>
          <g id="Group_984" data-name="Group 984" transform="translate(21.689 26.375)">
            <path id="Path_557" data-name="Path 557" d="M-189.829,484.249a.033.033,0,0,0-.032-.034.034.034,0,0,0-.035.034.034.034,0,0,0,.035.034.034.034,0,0,0,.032-.034" transform="translate(189.896 -484.216)" fill="#bc9d00"/>
          </g>
          <g id="Group_985" data-name="Group 985" transform="translate(21.709 26.489)">
            <path id="Path_558" data-name="Path 558" d="M-189.831,484.386a.034.034,0,0,0-.034.033.034.034,0,0,0,.034.034.033.033,0,0,0,.033-.034.033.033,0,0,0-.033-.033" transform="translate(189.865 -484.386)" fill="#bc9d00"/>
          </g>
          <g id="Group_986" data-name="Group 986" transform="translate(21.792 26.572)">
            <path id="Path_559" data-name="Path 559" d="M-189.709,484.509a.033.033,0,0,0-.033.034.033.033,0,0,0,.033.032.033.033,0,0,0,.032-.032.033.033,0,0,0-.032-.034" transform="translate(189.742 -484.509)" fill="#bc9d00"/>
          </g>
          <g id="Group_987" data-name="Group 987" transform="translate(21.679 26.59)">
            <path id="Path_560" data-name="Path 560" d="M-189.878,484.536a.032.032,0,0,0-.032.034.032.032,0,0,0,.032.032.033.033,0,0,0,.034-.032.033.033,0,0,0-.034-.034" transform="translate(189.91 -484.536)" fill="#bc9d00"/>
          </g>
          <g id="Group_988" data-name="Group 988" transform="translate(20.481 27.64)">
            <path id="Path_561" data-name="Path 561" d="M-191.615,486.1c-.072.07-.116.21-.049.255.082.053.22-.1.22-.1a.59.59,0,0,0-.171-.156" transform="translate(191.697 -486.102)" fill="#bc9d00"/>
          </g>
          <g id="Group_989" data-name="Group 989" transform="translate(20.641 27.543)">
            <path id="Path_562" data-name="Path 562" d="M-191.392,485.99a.034.034,0,0,0-.034-.034.033.033,0,0,0-.034.034.034.034,0,0,0,.034.034.034.034,0,0,0,.034-.034" transform="translate(191.459 -485.957)" fill="#bc9d00"/>
          </g>
          <g id="Group_990" data-name="Group 990" transform="translate(20.749 27.543)">
            <path id="Path_563" data-name="Path 563" d="M-191.266,485.957a.033.033,0,0,0-.032.034.033.033,0,0,0,.032.034.033.033,0,0,0,.033-.034.033.033,0,0,0-.033-.034" transform="translate(191.298 -485.957)" fill="#bc9d00"/>
          </g>
          <g id="Group_991" data-name="Group 991" transform="translate(20.735 27.654)">
            <path id="Path_564" data-name="Path 564" d="M-191.286,486.123a.033.033,0,0,0-.032.034.033.033,0,0,0,.032.034.034.034,0,0,0,.034-.034.034.034,0,0,0-.034-.034" transform="translate(191.318 -486.123)" fill="#bc9d00"/>
          </g>
          <g id="Group_992" data-name="Group 992" transform="translate(18.41 27.423)">
            <path id="Path_565" data-name="Path 565" d="M-194.734,485.778a.38.38,0,0,0-.007.381c.066.054.272-.18.3-.246a.474.474,0,0,0-.29-.135" transform="translate(194.787 -485.778)" fill="#bc9d00"/>
          </g>
          <g id="Group_993" data-name="Group 993" transform="translate(18.581 27.319)">
            <path id="Path_566" data-name="Path 566" d="M-194.531,485.657a.032.032,0,0,0,.032.032.032.032,0,0,0,.034-.032.033.033,0,0,0-.034-.034.033.033,0,0,0-.032.034" transform="translate(194.531 -485.623)" fill="#bc9d00"/>
          </g>
          <g id="Group_994" data-name="Group 994" transform="translate(18.681 27.29)">
            <path id="Path_567" data-name="Path 567" d="M-194.382,485.614a.034.034,0,0,0,.034.033.034.034,0,0,0,.034-.033.034.034,0,0,0-.034-.034.034.034,0,0,0-.034.034" transform="translate(194.382 -485.58)" fill="#bc9d00"/>
          </g>
          <g id="Group_995" data-name="Group 995" transform="translate(18.711 27.397)">
            <path id="Path_568" data-name="Path 568" d="M-194.3,485.74a.033.033,0,0,0-.034.034.033.033,0,0,0,.034.032.032.032,0,0,0,.032-.032.032.032,0,0,0-.032-.034" transform="translate(194.337 -485.74)" fill="#bc9d00"/>
          </g>
          <g id="Group_996" data-name="Group 996" transform="translate(18.813 27.405)">
            <path id="Path_569" data-name="Path 569" d="M-194.152,485.751a.032.032,0,0,0-.033.032.033.033,0,0,0,.033.034.033.033,0,0,0,.034-.034.032.032,0,0,0-.034-.032" transform="translate(194.185 -485.751)" fill="#bc9d00"/>
          </g>
          <g id="Group_997" data-name="Group 997" transform="translate(18.78 27.264)">
            <path id="Path_570" data-name="Path 570" d="M-194.169,485.576a.033.033,0,0,0-.033-.034.034.034,0,0,0-.034.034.034.034,0,0,0,.034.034.034.034,0,0,0,.033-.034" transform="translate(194.235 -485.542)" fill="#bc9d00"/>
          </g>
          <g id="Group_998" data-name="Group 998" transform="translate(18.637 27.185)">
            <path id="Path_571" data-name="Path 571" d="M-194.415,485.424a.033.033,0,0,0-.033.034.033.033,0,0,0,.033.034.032.032,0,0,0,.032-.034.033.033,0,0,0-.032-.034" transform="translate(194.448 -485.424)" fill="#bc9d00"/>
          </g>
          <g id="Group_999" data-name="Group 999" transform="translate(17.352 25.929)">
            <path id="Path_572" data-name="Path 572" d="M-196.364,483.676c0,.08.193.155.36.16a.652.652,0,0,0,0-.284c-.145-.011-.357.044-.36.124" transform="translate(196.364 -483.551)" fill="#bc9d00"/>
          </g>
          <g id="Group_1000" data-name="Group 1000" transform="translate(17.76 26.21)">
            <path id="Path_573" data-name="Path 573" d="M-195.724,483.969a.032.032,0,0,0-.032.034.033.033,0,0,0,.032.033.033.033,0,0,0,.032-.033.032.032,0,0,0-.032-.034" transform="translate(195.756 -483.969)" fill="#bc9d00"/>
          </g>
          <g id="Group_1001" data-name="Group 1001" transform="translate(17.852 26.154)">
            <path id="Path_574" data-name="Path 574" d="M-195.584,483.886a.033.033,0,0,0-.034.033.033.033,0,0,0,.034.034.032.032,0,0,0,.032-.034.032.032,0,0,0-.032-.033" transform="translate(195.618 -483.886)" fill="#bc9d00"/>
          </g>
          <g id="Group_1002" data-name="Group 1002" transform="translate(17.948 26.093)">
            <path id="Path_575" data-name="Path 575" d="M-195.444,483.794a.032.032,0,0,0-.032.034.033.033,0,0,0,.032.034.033.033,0,0,0,.034-.034.033.033,0,0,0-.034-.034" transform="translate(195.476 -483.794)" fill="#bc9d00"/>
          </g>
          <g id="Group_1003" data-name="Group 1003" transform="translate(17.772 26.078)">
            <path id="Path_576" data-name="Path 576" d="M-195.705,483.773a.033.033,0,0,0-.033.034.033.033,0,0,0,.033.033.034.034,0,0,0,.034-.033.034.034,0,0,0-.034-.034" transform="translate(195.738 -483.773)" fill="#bc9d00"/>
          </g>
          <g id="Group_1004" data-name="Group 1004" transform="translate(17.869 26.01)">
            <path id="Path_577" data-name="Path 577" d="M-195.56,483.671a.033.033,0,0,0-.033.034.034.034,0,0,0,.033.034.035.035,0,0,0,.034-.034.034.034,0,0,0-.034-.034" transform="translate(195.593 -483.671)" fill="#bc9d00"/>
          </g>
          <g id="Group_1005" data-name="Group 1005" transform="translate(17.782 25.929)">
            <path id="Path_578" data-name="Path 578" d="M-195.69,483.55a.033.033,0,0,0-.033.034.033.033,0,0,0,.033.034.033.033,0,0,0,.032-.034.033.033,0,0,0-.032-.034" transform="translate(195.723 -483.55)" fill="#bc9d00"/>
          </g>
          <g id="Group_1006" data-name="Group 1006" transform="translate(16.038 23.29)">
            <path id="Path_579" data-name="Path 579" d="M-197.966,479.693c-.114-.1-.326-.094-.353-.05s.086.189.194.267a.765.765,0,0,0,.159-.217" transform="translate(198.325 -479.614)" fill="#bc9d00"/>
          </g>
          <g id="Group_1007" data-name="Group 1007" transform="translate(16.261 23.623)">
            <path id="Path_580" data-name="Path 580" d="M-197.958,480.11a.034.034,0,0,0-.034.034.033.033,0,0,0,.034.034.033.033,0,0,0,.032-.034.033.033,0,0,0-.032-.034" transform="translate(197.992 -480.11)" fill="#bc9d00"/>
          </g>
          <g id="Group_1008" data-name="Group 1008" transform="translate(16.363 23.623)">
            <path id="Path_581" data-name="Path 581" d="M-197.806,480.11a.033.033,0,0,0-.033.034.033.033,0,0,0,.033.034.034.034,0,0,0,.034-.034.034.034,0,0,0-.034-.034" transform="translate(197.839 -480.11)" fill="#bc9d00"/>
          </g>
          <g id="Group_1009" data-name="Group 1009" transform="translate(16.355 23.509)">
            <path id="Path_582" data-name="Path 582" d="M-197.817,480.007a.033.033,0,0,0,.032-.034.032.032,0,0,0-.032-.032.033.033,0,0,0-.034.032.033.033,0,0,0,.034.034" transform="translate(197.851 -479.941)" fill="#bc9d00"/>
          </g>
          <g id="Group_1010" data-name="Group 1010" transform="translate(16.474 23.513)">
            <path id="Path_583" data-name="Path 583" d="M-197.64,479.947a.034.034,0,0,0-.034.032.034.034,0,0,0,.034.034.033.033,0,0,0,.032-.034.032.032,0,0,0-.032-.032" transform="translate(197.674 -479.947)" fill="#bc9d00"/>
          </g>
          <g id="Group_1011" data-name="Group 1011" transform="translate(16.441 23.389)">
            <path id="Path_584" data-name="Path 584" d="M-197.656,479.795a.034.034,0,0,0-.034-.034.034.034,0,0,0-.034.034.034.034,0,0,0,.034.034.034.034,0,0,0,.034-.034" transform="translate(197.724 -479.761)" fill="#bc9d00"/>
          </g>
          <g id="Group_1012" data-name="Group 1012" transform="translate(25.952 18.927)">
            <path id="Path_585" data-name="Path 585" d="M-183.339,473.106a.2.2,0,0,1,.14.058.193.193,0,0,1,.058.14.2.2,0,0,1-.058.14.2.2,0,0,1-.14.058.19.19,0,0,1-.14-.058.2.2,0,0,1-.058-.14.193.193,0,0,1,.058-.14.19.19,0,0,1,.14-.058" transform="translate(183.537 -473.106)" fill="#bc9d00"/>
          </g>
          <g id="Group_1013" data-name="Group 1013" transform="translate(23.453 16.428)">
            <path id="Path_586" data-name="Path 586" d="M-186.99,469.76a.2.2,0,0,0,.106-.258.2.2,0,0,0-.258-.108.2.2,0,0,0-.107.259.2.2,0,0,0,.259.107" transform="translate(187.265 -469.379)" fill="#bc9d00"/>
          </g>
          <g id="Group_1014" data-name="Group 1014" transform="translate(19.919 16.428)">
            <path id="Path_587" data-name="Path 587" d="M-192.261,469.76a.2.2,0,0,0,.107-.258.2.2,0,0,0-.259-.108.2.2,0,0,0-.107.259.2.2,0,0,0,.259.107" transform="translate(192.535 -469.379)" fill="#bc9d00"/>
          </g>
          <g id="Group_1015" data-name="Group 1015" transform="translate(17.421 18.927)">
            <path id="Path_588" data-name="Path 588" d="M-196.063,473.106a.2.2,0,0,1,.14.058.193.193,0,0,1,.058.14.2.2,0,0,1-.058.14.2.2,0,0,1-.14.058.193.193,0,0,1-.14-.058.2.2,0,0,1-.058-.14.193.193,0,0,1,.058-.14.193.193,0,0,1,.14-.058" transform="translate(196.261 -473.106)" fill="#bc9d00"/>
          </g>
          <g id="Group_1016" data-name="Group 1016" transform="translate(17.421 22.46)">
            <path id="Path_589" data-name="Path 589" d="M-196.063,478.376a.194.194,0,0,1,.14.058.192.192,0,0,1,.058.14.2.2,0,0,1-.058.14.2.2,0,0,1-.14.058.193.193,0,0,1-.14-.058.2.2,0,0,1-.058-.14.192.192,0,0,1,.058-.14.192.192,0,0,1,.14-.058" transform="translate(196.261 -478.376)" fill="#bc9d00"/>
          </g>
          <g id="Group_1017" data-name="Group 1017" transform="translate(19.919 24.959)">
            <path id="Path_590" data-name="Path 590" d="M-192.412,482.118a.2.2,0,0,0-.108.258.2.2,0,0,0,.259.108.2.2,0,0,0,.108-.258.2.2,0,0,0-.259-.108" transform="translate(192.535 -482.103)" fill="#bc9d00"/>
          </g>
          <g id="Group_1018" data-name="Group 1018" transform="translate(23.453 24.959)">
            <path id="Path_591" data-name="Path 591" d="M-187.141,482.118a.2.2,0,0,0-.108.258.2.2,0,0,0,.259.108.2.2,0,0,0,.107-.258.2.2,0,0,0-.258-.108" transform="translate(187.264 -482.103)" fill="#bc9d00"/>
          </g>
          <g id="Group_1019" data-name="Group 1019" transform="translate(25.952 22.46)">
            <path id="Path_592" data-name="Path 592" d="M-183.339,478.376a.194.194,0,0,1,.14.058.192.192,0,0,1,.058.14.2.2,0,0,1-.058.14.2.2,0,0,1-.14.058.191.191,0,0,1-.14-.058.2.2,0,0,1-.058-.14.192.192,0,0,1,.058-.14.19.19,0,0,1,.14-.058" transform="translate(183.537 -478.376)" fill="#bc9d00"/>
          </g>
          <g id="Group_1020" data-name="Group 1020" transform="translate(16.874 15.886)">
            <path id="Path_593" data-name="Path 593" d="M-187.067,473.547l-2.508-1.022,1.022-2.508-2.5,1.05-1.052-2.5-1.021,2.508-2.508-1.022,1.05,2.5-2.5,1.05,2.508,1.023-1.022,2.509,2.5-1.051,1.051,2.5,1.022-2.508,2.508,1.022-1.05-2.5Z" transform="translate(197.078 -468.57)" fill="#bc9d00"/>
          </g>
          <g id="Group_1021" data-name="Group 1021" transform="translate(17.353 16.366)">
            <path id="Path_594" data-name="Path 594" d="M-190.888,476.069l2.269.925-.949-2.257,2.257-.95-2.269-.925.925-2.268-2.257.949-.95-2.257-.925,2.268-2.269-.925.95,2.257-2.257.95,2.268.925-.924,2.269,2.257-.95.949,2.257Z" transform="translate(196.363 -469.285)" fill="#fff" fill-rule="evenodd"/>
          </g>
          <g id="Group_1022" data-name="Group 1022" transform="translate(20.711 18.702)">
            <path id="Path_595" data-name="Path 595" d="M-189.934,475.881c0-.921-.379-1.159-.379-2.071a3.136,3.136,0,0,1,.206-1.04c-.08.922.7,1.51.7,2.74,0,.779-.306,1.228-.532,1.228-.145,0-.138-.094-.212-.094s-.141.112-.294.112-.65-.247-.73-1.338a1.259,1.259,0,0,0,.031.709,1.757,1.757,0,0,1,.159-1.9,3.412,3.412,0,0,0,.185,1.8c.045.109.126.169.2.109s0-.17-.054-.3a2.477,2.477,0,0,1,.249-2.552,7.571,7.571,0,0,0,.28,2.009c0,.449-.271,1.051-.011,1.051.166,0,.2-.314.2-.463" transform="translate(191.354 -472.77)" fill="#e63337"/>
          </g>
          <g id="Group_1023" data-name="Group 1023" transform="translate(22.282 19.214)">
            <path id="Path_596" data-name="Path 596" d="M-188.837,476.8a1.809,1.809,0,0,0,.732-1.423c0-.772-.778-1.4-.906-1.844,0,.711.486,1.161.486,2.119,0,.886-.312,1.147-.312,1.147" transform="translate(189.011 -473.534)" fill="#e63337"/>
          </g>
          <g id="Group_1024" data-name="Group 1024" transform="translate(25.403 25.878)">
            <path id="Path_597" data-name="Path 597" d="M-183.944,483.483a1.235,1.235,0,0,0-.145-.008,2.256,2.256,0,0,1-.261.129.156.156,0,0,0,0,.076,2.177,2.177,0,0,0,.408-.2" transform="translate(184.356 -483.475)" fill="#ffda00"/>
          </g>
          <g id="Group_1025" data-name="Group 1025" transform="translate(26.17 25.051)">
            <path id="Path_598" data-name="Path 598" d="M-182.978,482.241a.4.4,0,0,0-.119.047.237.237,0,0,0-.113.164,2.871,2.871,0,0,0,.233-.211" transform="translate(183.211 -482.241)" fill="#ffda00"/>
          </g>
          <g id="Group_1026" data-name="Group 1026" transform="translate(26.101 24.453)">
            <path id="Path_599" data-name="Path 599" d="M-183.187,481.507a.306.306,0,0,0,.06-.158c-.057.062-.126.145-.188.22a.141.141,0,0,0,.128-.062" transform="translate(183.315 -481.349)" fill="#ffda00"/>
          </g>
          <g id="Group_1027" data-name="Group 1027" transform="translate(24.337 26.552)">
            <path id="Path_600" data-name="Path 600" d="M-185.631,484.644a2.268,2.268,0,0,0,.328-.1c-.041-.02-.076-.042-.11-.062a1.193,1.193,0,0,1-.493.1h-.038v0a.729.729,0,0,0,.315.064" transform="translate(185.946 -484.48)" fill="#ffda00"/>
          </g>
          <g id="Group_1028" data-name="Group 1028" transform="translate(19.964 27.388)">
            <path id="Path_601" data-name="Path 601" d="M-192.106,485.883a.4.4,0,0,1-.248-.125s-.056-.054-.1-.019-.011.1.011.14a.482.482,0,0,1,.066.127c.036.052.119.127.178.117.107-.019.176-.072.15-.258a.1.1,0,0,1-.059.019" transform="translate(192.469 -485.727)" fill="#005641"/>
          </g>
          <g id="Group_1029" data-name="Group 1029" transform="translate(17.269 23.845)">
            <path id="Path_602" data-name="Path 602" d="M-196.434,480.676c.124.1.13.152.1.2s-.078.175.035.231c.093.045.18-.133.209-.245q-.163-.2-.306-.42a.135.135,0,0,0-.042.235" transform="translate(196.488 -480.441)" fill="#005641"/>
          </g>
          <g id="Group_1030" data-name="Group 1030" transform="translate(18.124 24.893)">
            <path id="Path_603" data-name="Path 603" d="M-195.011,482.265c.013.032.024.049.032.049a.261.261,0,0,0-.08-.278.153.153,0,0,0-.154-.019.436.436,0,0,1,.2.249" transform="translate(195.213 -482.004)" fill="#005641"/>
          </g>
          <g id="Group_1031" data-name="Group 1031" transform="translate(20.931 27.282)">
            <path id="Path_604" data-name="Path 604" d="M-190.758,485.675c-.021-.237-.268-.006-.268-.006a3.137,3.137,0,0,0,.3.248c.023-.011.022-.011.044-.022l-.017-.032a.453.453,0,0,1-.058-.188" transform="translate(191.026 -485.568)" fill="#005641"/>
          </g>
          <g id="Group_1032" data-name="Group 1032" transform="translate(16.262 22.232)">
            <path id="Path_605" data-name="Path 605" d="M-197.158,479.5a1.238,1.238,0,0,0-.411-.561l-.023-.019a.014.014,0,0,1,0-.019.013.013,0,0,1,.018,0l.022.02a1.36,1.36,0,0,1,.336.386,3.988,3.988,0,0,0-.473-.911.013.013,0,0,1,0-.018.015.015,0,0,1,.02,0,3.814,3.814,0,0,1,.542,1.131c.109.158.016-.229.016-.229v0a5.275,5.275,0,0,1-.394-.909v0c-.059-.162-.274-.456-.41-.277-.089.118-.094.211.108.439a.134.134,0,0,1-.041.208c-.208.093-.156.218-.069.28.059.044.306.211.295.349s-.17.158-.166.33a.4.4,0,0,0,.379.376c.209,0,.348-.268.249-.572" transform="translate(197.991 -478.036)" fill="#005641"/>
          </g>
          <g id="Group_1033" data-name="Group 1033" transform="translate(17.774 24.932)">
            <path id="Path_606" data-name="Path 606" d="M-195.236,482.288c-.054-.132-.185-.31-.389-.178a.243.243,0,0,0,0,.408c.126.1.164.147.062.226s-.135.153-.011.26.207.183.153.258c-.09.124-.336.182-.19.324a.875.875,0,0,0,.2.154v-.025a.218.218,0,0,1,.054-.166.152.152,0,0,1,.11-.046.178.178,0,0,1,.093.028.227.227,0,0,0,.119.037.178.178,0,0,0,.089-.023.1.1,0,0,0,.045-.062,1.259,1.259,0,0,1-.324-.115.015.015,0,0,1-.007-.019.014.014,0,0,1,.019,0,1.356,1.356,0,0,0,.314.113h.005v0a.575.575,0,0,1,.027-.113l0,0a2.674,2.674,0,0,0-.2-.389.883.883,0,0,0-.225-.057c-.066-.011-.142-.024-.214-.043a.015.015,0,0,1-.011-.016.016.016,0,0,1,.016-.01c.072.018.147.032.213.044a1.439,1.439,0,0,1,.2.043,5.413,5.413,0,0,0-.46-.625.02.02,0,0,1,0-.019.013.013,0,0,1,.018,0,5.318,5.318,0,0,1,.461.629,1.349,1.349,0,0,1,.057-.431.013.013,0,0,1,.019-.005.013.013,0,0,1,.005.018,1.42,1.42,0,0,0-.054.462,2.858,2.858,0,0,1,.188.371.31.31,0,0,1,.091-.094.178.178,0,0,1,.066-.028v-.208a.014.014,0,0,1,.013-.014.014.014,0,0,1,.013.014v.2h.016a.681.681,0,0,1,.432.282.325.325,0,0,1,.084-.009c.076,0,.093-.008.1-.039s0-.062-.164-.135l-.066-.032a.259.259,0,0,1-.153-.17.3.3,0,0,1,.051-.221.224.224,0,0,0-.274-.153c-.072.014-.169.042-.2-.115s-.08-.3-.2-.234c-.086.052-.147.062-.2-.07" transform="translate(195.735 -482.063)" fill="#005641"/>
          </g>
          <g id="Group_1034" data-name="Group 1034" transform="translate(19.137 25.675)">
            <path id="Path_607" data-name="Path 607" d="M-192.171,484.082h0c.024-.127-.015-.455-.277-.355-.209.08-.241.064-.255-.074s-.174-.2-.306-.2-.126.035-.175-.043a1.605,1.605,0,0,0-.355-.235.168.168,0,0,0-.091.05c-.073.092-.131.261.042.344s.306.083.271.217c-.042.161-.227.031-.269.153a.209.209,0,0,0,.278.211c.168-.062.4-.075.412.058.019.213-.4.194-.187.44.1.117.333.094.5.071a.3.3,0,0,0,.186-.125,1.054,1.054,0,0,0-.046-.172.473.473,0,0,0-.341-.017.015.015,0,0,1-.019-.007.014.014,0,0,1,.008-.017.484.484,0,0,1,.339.01,1.086,1.086,0,0,0-.422-.478,1.914,1.914,0,0,1-.307.033h-.051a.013.013,0,0,1-.013-.014.015.015,0,0,1,.015-.013,1.452,1.452,0,0,0,.324-.027l-.036-.026a1.15,1.15,0,0,1-.476-.507.015.015,0,0,1,.008-.017.014.014,0,0,1,.017.007,1.119,1.119,0,0,0,.465.5l.051.036a.783.783,0,0,0-.064-.312.015.015,0,0,1,0-.019.017.017,0,0,1,.02,0,.9.9,0,0,1,.067.343v0a1.118,1.118,0,0,1,.4.436c0-.031-.009-.071-.015-.113a2.187,2.187,0,0,1-.029-.289.012.012,0,0,1,.013-.013.012.012,0,0,1,.013.013,2.247,2.247,0,0,0,.03.284,1.422,1.422,0,0,1,.019.189.821.821,0,0,1,.045.158.39.39,0,0,0,.025-.046c.038-.086.081-.183.119-.26a.626.626,0,0,0,.065-.169" transform="translate(193.702 -483.171)" fill="#005641"/>
          </g>
          <g id="Group_1035" data-name="Group 1035" transform="translate(18.915 26.682)">
            <path id="Path_608" data-name="Path 608" d="M-192.6,485.233a.788.788,0,0,1-.3.046.426.426,0,0,1-.31-.1l-.011-.012a.86.86,0,0,0-.091.1.773.773,0,0,0,.093.381.012.012,0,0,1,0,.017l-.008,0a.014.014,0,0,1-.011-.006.753.753,0,0,1-.1-.36,1.572,1.572,0,0,0-.245.71.011.011,0,0,1-.011.013h0a.014.014,0,0,1-.013-.014,1.58,1.58,0,0,1,.231-.7c-.067.048-.18.127-.247.186a.013.013,0,0,1-.019,0,.015.015,0,0,1,0-.019c.1-.087.295-.22.307-.228a1.135,1.135,0,0,1,.095-.109.189.189,0,0,1-.053-.138c.008-.082.08-.131.142-.172a.29.29,0,0,0,.054-.038.68.68,0,0,0-.045-.052.276.276,0,0,0-.215-.072l-.022.005a.274.274,0,0,1-.084.019c-.083.043-.052.132.008.169a.113.113,0,0,1,0,.2.794.794,0,0,1-.341.121c-.166.029-.235.095-.239.177-.011.18.209.112.27.18a.182.182,0,0,1-.024.27.225.225,0,0,0,0,.337.218.218,0,0,0,.338-.109c.032-.146-.009-.234.1-.272s.223.146.371.051-.049-.241-.056-.367a.11.11,0,0,1,.191-.09c.075.067.188.172.274.1.07-.059.054-.158-.032-.229" transform="translate(194.034 -484.673)" fill="#005641"/>
          </g>
          <g id="Group_1036" data-name="Group 1036" transform="translate(20.494 26.297)">
            <path id="Path_609" data-name="Path 609" d="M-190.075,485.437a.279.279,0,0,0-.139-.434c-.2-.1.182-.236.045-.383s-.219-.076-.456-.091-.073-.2-.213-.368c-.067-.081-.168-.074-.278-.022a1.791,1.791,0,0,0-.485.6c.067-.015.13-.026.188-.038a1.765,1.765,0,0,0,.462-.322.014.014,0,0,1,.019,0,.012.012,0,0,1,0,.018,1.721,1.721,0,0,1-.395.29.866.866,0,0,1,.482.023,1.179,1.179,0,0,0,.545.024.013.013,0,0,1,.017.006.015.015,0,0,1-.007.018,1.039,1.039,0,0,1-.462,0,1.976,1.976,0,0,1,.467.467.015.015,0,0,1,0,.02l-.007,0a.012.012,0,0,1-.01,0,1.91,1.91,0,0,0-.462-.459.324.324,0,0,1,.1.3.012.012,0,0,1-.013.013.012.012,0,0,1-.013-.013.326.326,0,0,0-.163-.343.892.892,0,0,0-.51-.014.418.418,0,0,1,.166.15.014.014,0,0,1-.006.019h0a.022.022,0,0,1-.013-.006.384.384,0,0,0-.186-.156c-.064.011-.131.027-.205.042a.68.68,0,0,0-.062.21.238.238,0,0,0,.094.168c.268.2.292-.081.516-.107.182-.022.1.162.192.314s.192.03.259-.019.107-.084.177.054a.225.225,0,0,0,.365.048" transform="translate(191.678 -484.1)" fill="#005641"/>
          </g>
          <g id="Group_1037" data-name="Group 1037" transform="translate(17.703 26.106)">
            <path id="Path_610" data-name="Path 610" d="M-194.368,484.846c.154-.026.286-.075.286-.163,0-.058-.1-.09-.072-.2a.16.16,0,0,0-.013-.066h-.008a1.317,1.317,0,0,0-.258-.032,1.2,1.2,0,0,0-.263.261.015.015,0,0,1-.011.005.009.009,0,0,1-.008,0,.013.013,0,0,1,0-.018,1.376,1.376,0,0,1,.239-.245,1.367,1.367,0,0,0-.43.088,1.193,1.193,0,0,1-.211.3l-.008,0a.016.016,0,0,1-.011,0,.015.015,0,0,1,0-.02,1.253,1.253,0,0,0,.194-.268,1.26,1.26,0,0,1-.427.083,1.015,1.015,0,0,1-.118-.006.013.013,0,0,1-.013-.015.013.013,0,0,1,.015-.011,1.074,1.074,0,0,0,.487-.06,1,1,0,0,1-.134-.067c-.042-.023-.086-.048-.129-.067a.012.012,0,0,1-.007-.017.015.015,0,0,1,.017-.008c.044.02.088.046.131.068a.426.426,0,0,0,.173.073l.018-.006a1.365,1.365,0,0,1,.444-.093l-.28-.176a.013.013,0,0,1,0-.019.014.014,0,0,1,.019,0s.239.152.317.2a1.18,1.18,0,0,1,.22.024.269.269,0,0,1-.081-.078.228.228,0,0,1-.042-.191.36.36,0,0,1,.038-.05c-.118-.148-.353-.306-.459-.231-.17.12-.086.263-.2.322a.24.24,0,0,1-.259-.008.124.124,0,0,0-.186.121c0,.137.027.137-.088.15s-.317.025-.349.194.137.219.2.223c.14.009.273-.1.318.019s.049.213.138.209c.182-.006.2-.209.341-.218a.325.325,0,0,1,.2.127.394.394,0,0,1,.272-.127" transform="translate(195.841 -483.815)" fill="#005641"/>
          </g>
          <g id="Group_1038" data-name="Group 1038" transform="translate(22.252 27.614)">
            <path id="Path_611" data-name="Path 611" d="M-188.272,486.325c-.292-.1-.669-.261-.669-.261a.265.265,0,0,1-.115.073c.191.092.561.261.561.261a.274.274,0,0,1,.223-.073" transform="translate(189.056 -486.064)" fill="#005641"/>
          </g>
          <g id="Group_1039" data-name="Group 1039" transform="translate(22.28 28.102)">
            <path id="Path_612" data-name="Path 612" d="M-188.583,486.795c-.345-.034-.538.143-.367.166.339.044.564-.147.367-.166" transform="translate(189.013 -486.791)" fill="#005641"/>
          </g>
          <g id="Group_1040" data-name="Group 1040" transform="translate(22.884 27.92)">
            <path id="Path_613" data-name="Path 613" d="M-187.839,486.538c-.156-.059-.346.048-.247.1.132.069.4-.042.247-.1" transform="translate(188.114 -486.52)" fill="#005641"/>
          </g>
          <g id="Group_1041" data-name="Group 1041" transform="translate(21.755 27.773)">
            <path id="Path_614" data-name="Path 614" d="M-188.958,486.572c-.124-.054-.369-.164-.6-.272a1.641,1.641,0,0,0-.24.148c.2.1.388.214.46.255a.459.459,0,0,1,.379-.131" transform="translate(189.797 -486.3)" fill="#005641"/>
          </g>
          <g id="Group_1042" data-name="Group 1042" transform="translate(25.613 24.484)">
            <path id="Path_615" data-name="Path 615" d="M-183.22,481.762a3.381,3.381,0,0,1-.236.247c-.161.113-.372.109-.49.194-.187.139-.069.215.067.184.1-.022.2-.1.4-.331a3.288,3.288,0,0,0,.266-.274.142.142,0,0,0,.176.081c.137-.035.206-.08.465-.469-.1.053-.438.065-.575.2a.2.2,0,0,0-.072.166" transform="translate(184.042 -481.395)" fill="#ffda00"/>
          </g>
          <g id="Group_1043" data-name="Group 1043" transform="translate(22.129 27.146)">
            <path id="Path_616" data-name="Path 616" d="M-188.858,485.366h0c-.117.035-.245.08-.381.131a.351.351,0,0,1,.053.086c.156-.066.3-.121.422-.162a.163.163,0,0,1-.095-.054" transform="translate(189.239 -485.366)" fill="#ffda00"/>
          </g>
          <g id="Group_1044" data-name="Group 1044" transform="translate(21.955 26.339)">
            <path id="Path_617" data-name="Path 617" d="M-189.365,484.643a3.645,3.645,0,0,1,.432-.481,1.7,1.7,0,0,0-.566.349.415.415,0,0,1,.1.082.2.2,0,0,1,.034.051" transform="translate(189.499 -484.162)" fill="#ffda00"/>
          </g>
          <g id="Group_1045" data-name="Group 1045" transform="translate(26.869 23.572)">
            <path id="Path_618" data-name="Path 618" d="M-181.952,480.54a.982.982,0,0,0,.257-.5c-.139.172-.293.174-.395.284-.194.211.017.329.137.221" transform="translate(182.169 -480.035)" fill="#ffda00"/>
          </g>
          <g id="Group_1046" data-name="Group 1046" transform="translate(26.715 23.33)">
            <path id="Path_619" data-name="Path 619" d="M-182.21,480.107c.027-.093-.034-.286-.009-.434a.634.634,0,0,0-.163.529c.054.121.145,0,.172-.1" transform="translate(182.398 -479.673)" fill="#ffda00"/>
          </g>
          <g id="Group_1047" data-name="Group 1047" transform="translate(26.38 23.505)">
            <path id="Path_620" data-name="Path 620" d="M-182.656,480.613c.108-.114-.057-.359.016-.678a2.457,2.457,0,0,0-.239.483c-.079.426.115.309.223.2" transform="translate(182.897 -479.935)" fill="#ffda00"/>
          </g>
          <g id="Group_1048" data-name="Group 1048" transform="translate(26.662 24.106)">
            <path id="Path_621" data-name="Path 621" d="M-182.326,481.234c.11-.009.245-.137.387-.4-.112.13-.41.079-.5.175a.132.132,0,0,0,.108.228" transform="translate(182.477 -480.831)" fill="#ffda00"/>
          </g>
          <g id="Group_1049" data-name="Group 1049" transform="translate(25.16 25.037)">
            <path id="Path_622" data-name="Path 622" d="M-184.507,482.627a.6.6,0,0,1,.117-.408c-.065.048-.328.253-.328.457,0,.277.194.111.21-.049" transform="translate(184.718 -482.219)" fill="#ffda00"/>
          </g>
          <g id="Group_1050" data-name="Group 1050" transform="translate(24.806 25.283)">
            <path id="Path_623" data-name="Path 623" d="M-185.076,483.109c.134-.132.042-.268.174-.523a1.058,1.058,0,0,0-.31.36c-.084.2,0,.294.137.163" transform="translate(185.246 -482.586)" fill="#ffda00"/>
          </g>
          <g id="Group_1051" data-name="Group 1051" transform="translate(24.463 25.533)">
            <path id="Path_624" data-name="Path 624" d="M-185.571,483.47c.168-.173.052-.3.156-.51a1.628,1.628,0,0,0-.3.332c-.093.172-.025.35.145.178" transform="translate(185.757 -482.96)" fill="#ffda00"/>
          </g>
          <g id="Group_1052" data-name="Group 1052" transform="translate(24.025 25.682)">
            <path id="Path_625" data-name="Path 625" d="M-186.188,483.81c.193-.174.068-.354.306-.628a1.4,1.4,0,0,0-.5.471c-.084.169-.006.332.19.156" transform="translate(186.411 -483.182)" fill="#ffda00"/>
          </g>
          <g id="Group_1053" data-name="Group 1053" transform="translate(23.553 25.865)">
            <path id="Path_626" data-name="Path 626" d="M-186.854,484.113c.137-.135.153-.369.32-.658a1.7,1.7,0,0,0-.532.448c-.148.245.077.346.213.209" transform="translate(187.115 -483.455)" fill="#ffda00"/>
          </g>
          <g id="Group_1054" data-name="Group 1054" transform="translate(23.029 26.086)">
            <path id="Path_627" data-name="Path 627" d="M-187.645,484.483c.271-.264.149-.349.36-.7a1.873,1.873,0,0,0-.579.543c-.075.117-.025.392.219.156" transform="translate(187.896 -483.784)" fill="#ffda00"/>
          </g>
          <g id="Group_1055" data-name="Group 1055" transform="translate(22.533 26.202)">
            <path id="Path_628" data-name="Path 628" d="M-188.61,484.662c-.093.2.075.3.215.169s.194-.465.484-.873a1.94,1.94,0,0,0-.7.7" transform="translate(188.637 -483.958)" fill="#ffda00"/>
          </g>
          <g id="Group_1056" data-name="Group 1056" transform="translate(22.044 26.304)">
            <path id="Path_629" data-name="Path 629" d="M-189.058,484.94c.234-.241.172-.436.544-.83a1.8,1.8,0,0,0-.825.678c-.11.229.124.312.28.152" transform="translate(189.366 -484.11)" fill="#ffda00"/>
          </g>
          <g id="Group_1057" data-name="Group 1057" transform="translate(20.641 27.545)">
            <path id="Path_630" data-name="Path 630" d="M-190.466,485.96s-.016,0-.04.019a.235.235,0,0,0-.034.031.249.249,0,0,1-.156.086.143.143,0,0,1-.1-.048c-.253.121-.484.256-.659.359a.4.4,0,0,1,.21.068c.182-.123.5-.3.829-.47-.022-.036-.04-.046-.046-.046" transform="translate(191.458 -485.96)" fill="#ffda00"/>
          </g>
          <g id="Group_1058" data-name="Group 1058" transform="translate(20.983 27.685)">
            <path id="Path_631" data-name="Path 631" d="M-190.949,486.608a.659.659,0,0,1,.379.027,4.909,4.909,0,0,1,.548-.4.324.324,0,0,1-.164-.07,6.019,6.019,0,0,0-.763.438" transform="translate(190.949 -486.17)" fill="#ffda00"/>
          </g>
          <g id="Group_1059" data-name="Group 1059" transform="translate(20.906 28.153)">
            <path id="Path_632" data-name="Path 632" d="M-191.01,486.895c-.169.078.091.153.3.078s-.164-.143-.3-.078" transform="translate(191.064 -486.868)" fill="#ffda00"/>
          </g>
          <g id="Group_1060" data-name="Group 1060" transform="translate(20.492 28.042)">
            <path id="Path_633" data-name="Path 633" d="M-191.6,486.708c-.194.045.005.129.15.1s-.03-.123-.15-.1" transform="translate(191.681 -486.702)" fill="#ffda00"/>
          </g>
          <g id="Group_1061" data-name="Group 1061" transform="translate(23.5 28.024)">
            <path id="Path_634" data-name="Path 634" d="M-187.194,486.86a1.418,1.418,0,0,0,.618-.121,1.989,1.989,0,0,1-.253-.064.873.873,0,0,1-.365.185" transform="translate(187.194 -486.675)" fill="#ffda00"/>
          </g>
          <g id="Group_1062" data-name="Group 1062" transform="translate(23.663 27.368)">
            <path id="Path_635" data-name="Path 635" d="M-186.677,485.749a2.79,2.79,0,0,1-.274.164,7.678,7.678,0,0,0,1.193.046.975.975,0,0,0,.149-.263,7.375,7.375,0,0,1-1.067.053" transform="translate(186.951 -485.696)" fill="#ffda00"/>
          </g>
          <g id="Group_1063" data-name="Group 1063" transform="translate(24.501 27.686)">
            <path id="Path_636" data-name="Path 636" d="M-185.7,486.31c.009,0,.255-.139.255-.139h-.145a1.136,1.136,0,0,0-.11.139" transform="translate(185.701 -486.171)" fill="#ffda00"/>
          </g>
          <g id="Group_1064" data-name="Group 1064" transform="translate(23.857 27.032)">
            <path id="Path_637" data-name="Path 637" d="M-185.962,485.31l-.064.019c-.119.038-.228.071-.326.1a2.27,2.27,0,0,0,.766-.113,1.178,1.178,0,0,1-.383-.1.3.3,0,0,0-.212-.009.087.087,0,0,1-.017.005,3.653,3.653,0,0,1-.463.123.665.665,0,0,0,.24.082c.115-.032.243-.07.387-.116l.064-.019a.014.014,0,0,1,.017.008.013.013,0,0,1-.009.017" transform="translate(186.661 -485.195)" fill="#ffda00"/>
          </g>
          <g id="Group_1065" data-name="Group 1065" transform="translate(24.962 26.228)">
            <path id="Path_638" data-name="Path 638" d="M-184.8,484.121a2.161,2.161,0,0,0,.221-.106.992.992,0,0,0-.2-.018,1.1,1.1,0,0,1-.212.095.208.208,0,0,0-.025.046.358.358,0,0,0,.161,0l.052-.013" transform="translate(185.013 -483.997)" fill="#ffda00"/>
          </g>
          <g id="Group_1066" data-name="Group 1066" transform="translate(24.966 26.254)">
            <path id="Path_639" data-name="Path 639" d="M-184.534,484.035c-.045.024-.086.046-.127.066a3.392,3.392,0,0,1-.346.194.192.192,0,0,0,.185.088,1.579,1.579,0,0,0,.779-.316,1.371,1.371,0,0,1-.491-.031" transform="translate(185.007 -484.035)" fill="#ffda00"/>
          </g>
          <g id="Group_1067" data-name="Group 1067" transform="translate(25.416 25.836)">
            <path id="Path_640" data-name="Path 640" d="M-183.894,483.465a2.161,2.161,0,0,1-.442.22.165.165,0,0,0,.089.076l.142-.084a.012.012,0,0,1,.019,0,.012.012,0,0,1,0,.017c-.043.026-.082.051-.121.072a.243.243,0,0,0,.083,0,1.35,1.35,0,0,0,.753-.362,1.3,1.3,0,0,1-.519.054" transform="translate(184.336 -483.411)" fill="#ffda00"/>
          </g>
          <g id="Group_1068" data-name="Group 1068" transform="translate(25.849 25.431)">
            <path id="Path_641" data-name="Path 641" d="M-183.359,482.847c-.017.011-.035.02-.052.029a1.673,1.673,0,0,1-.279.192.1.1,0,0,0,.014.056,1.538,1.538,0,0,0,.268-.184.012.012,0,0,1,.018,0,.012.012,0,0,1,0,.018,1.519,1.519,0,0,1-.267.183.185.185,0,0,0,.168.021,1.179,1.179,0,0,0,.561-.356,1.538,1.538,0,0,1-.429.039" transform="translate(183.69 -482.808)" fill="#ffda00"/>
          </g>
          <g id="Group_1069" data-name="Group 1069" transform="translate(26.171 24.974)">
            <path id="Path_642" data-name="Path 642" d="M-183.21,482.445a.132.132,0,0,0,.091.092,3.123,3.123,0,0,0,.269-.211.014.014,0,0,1,.018,0,.014.014,0,0,1,0,.019c-.1.086-.18.148-.251.2a.212.212,0,0,0,.084,0c.137-.029.255-.118.528-.419a4.033,4.033,0,0,0-.459.066,2.281,2.281,0,0,1-.278.255" transform="translate(183.21 -482.125)" fill="#ffda00"/>
          </g>
          <g id="Group_1070" data-name="Group 1070" transform="translate(26.031 24.044)">
            <path id="Path_643" data-name="Path 643" d="M-183.3,481.1a.012.012,0,0,1,0,.018c-.04.052-.082.1-.119.139a.134.134,0,0,0,.044.1c.074-.089.158-.188.22-.255.011-.11,0-.242.007-.363a.965.965,0,0,0-.271.477c.031-.035.064-.074.1-.116a.013.013,0,0,1,.018,0" transform="translate(183.419 -480.738)" fill="#ffda00"/>
          </g>
          <g id="Group_1071" data-name="Group 1071" transform="translate(25.328 25.471)">
            <path id="Path_644" data-name="Path 644" d="M-184.356,482.95c-.191.109-.108.2.052.194a.979.979,0,0,0,.6-.278c-.194.076-.486-.011-.652.083" transform="translate(184.467 -482.867)" fill="#ffda00"/>
          </g>
          <g id="Group_1072" data-name="Group 1072" transform="translate(24.946 25.786)">
            <path id="Path_645" data-name="Path 645" d="M-184.975,483.4c-.107.094-.068.2.072.2a1.123,1.123,0,0,0,.61-.217c-.315.03-.518-.119-.682.021" transform="translate(185.037 -483.337)" fill="#ffda00"/>
          </g>
          <g id="Group_1073" data-name="Group 1073" transform="translate(24.613 26.074)">
            <path id="Path_646" data-name="Path 646" d="M-184.829,483.812c-.23.027-.535-.1-.65-.019-.073.05-.084.157.048.191.194.054.343-.016.6-.172" transform="translate(185.533 -483.766)" fill="#ffda00"/>
          </g>
          <g id="Group_1074" data-name="Group 1074" transform="translate(22.688 27.114)">
            <path id="Path_647" data-name="Path 647" d="M-188.232,485.319c-.219.021-.265.31.062.347a2.379,2.379,0,0,0,1.123-.178c-.507.047-.911-.2-1.185-.17" transform="translate(188.406 -485.317)" fill="#ffda00"/>
          </g>
          <g id="Group_1075" data-name="Group 1075" transform="translate(25.44 24.598)">
            <path id="Path_648" data-name="Path 648" d="M-184.285,482.353c.044.038.124-.011.215-.133s-.035-.244.309-.655a3.963,3.963,0,0,0-.4.441c-.119.158-.173.309-.129.347" transform="translate(184.3 -481.565)" fill="#ffda00"/>
          </g>
          <g id="Group_1076" data-name="Group 1076" transform="translate(25.777 24.338)">
            <path id="Path_649" data-name="Path 649" d="M-183.756,481.814c-.121.164.05.276.172.155a.833.833,0,0,0,.119-.155c.108-.093.3-.283.436-.432a.008.008,0,0,0,0-.012.009.009,0,0,0-.013,0c-.119.13-.279.291-.389.392.039-.067.082-.145.128-.235a2.576,2.576,0,0,0,.275-.337.009.009,0,0,0,0-.013.011.011,0,0,0-.013,0,2.676,2.676,0,0,1-.271.334,1.278,1.278,0,0,0-.442.3" transform="translate(183.798 -481.176)" fill="#ffda00"/>
          </g>
          <g id="Group_1077" data-name="Group 1077" transform="translate(22.304 27.372)">
            <path id="Path_650" data-name="Path 650" d="M-188.978,485.742a10.724,10.724,0,0,0,1.874.632c.036-.18.072-.345.072-.345a7.259,7.259,0,0,1-1.829-.328c-.051.016-.117.04-.117.04" transform="translate(188.978 -485.702)" fill="#ffda00"/>
          </g>
          <g id="Group_1078" data-name="Group 1078" transform="translate(23.91 26.9)">
            <path id="Path_651" data-name="Path 651" d="M-186.48,485.01c-.033,0-.068,0-.1,0a1.41,1.41,0,0,0,.44.066.459.459,0,0,1-.109-.073,1.886,1.886,0,0,1-.229.011" transform="translate(186.582 -484.999)" fill="#ffda00"/>
          </g>
          <g id="Group_1079" data-name="Group 1079" transform="translate(24.176 26.31)">
            <path id="Path_652" data-name="Path 652" d="M-186.092,484.174c-.172.121-.08.231.064.243a1.365,1.365,0,0,0,.717-.2c-.134.019-.56-.2-.78-.045" transform="translate(186.185 -484.118)" fill="#ffda00"/>
          </g>
          <g id="Group_1080" data-name="Group 1080" transform="translate(23.663 26.564)">
            <path id="Path_653" data-name="Path 653" d="M-186.77,484.505c-.14.034-.3.256-.051.288a1.437,1.437,0,0,0,.782-.1c-.249-.027-.521-.236-.731-.186" transform="translate(186.95 -484.498)" fill="#ffda00"/>
          </g>
          <g id="Group_1081" data-name="Group 1081" transform="translate(24.304 26.63)">
            <path id="Path_654" data-name="Path 654" d="M-185.285,484.595c-.089.035-.169.063-.245.085a2.853,2.853,0,0,1-.465.169.206.206,0,0,0,.143.08l.019,0a1.8,1.8,0,0,0,.506-.172.012.012,0,0,1,.017.005.014.014,0,0,1,0,.019,1.8,1.8,0,0,1-.436.158,1.981,1.981,0,0,0,1.066-.306,1.071,1.071,0,0,1-.6-.041" transform="translate(185.995 -484.595)" fill="#ffda00"/>
          </g>
          <g id="Group_1082" data-name="Group 1082" transform="translate(23.151 26.835)">
            <path id="Path_655" data-name="Path 655" d="M-187.538,484.909c-.219.048-.232.245-.046.3a1.9,1.9,0,0,0,1.034-.127c-.349,0-.752-.219-.988-.169" transform="translate(187.714 -484.902)" fill="#ffda00"/>
          </g>
          <g id="Group_1083" data-name="Group 1083" transform="translate(23.593 27.191)">
            <path id="Path_656" data-name="Path 656" d="M-186.863,485.433a1.551,1.551,0,0,1-.193.021,1.664,1.664,0,0,0,.333.04.747.747,0,0,1-.139-.061" transform="translate(187.056 -485.433)" fill="#ffda00"/>
          </g>
          <g id="Group_1084" data-name="Group 1084" transform="translate(26.953 22.903)">
            <path id="Path_657" data-name="Path 657" d="M-181.835,479.771c.119-.143.135-.265.135-.734a3.368,3.368,0,0,0-.324.551c-.068.261.07.327.19.183" transform="translate(182.043 -479.037)" fill="#ffda00"/>
          </g>
        </g>
      </g>
      <g id="Group_1096" data-name="Group 1096" transform="translate(8.359 69.191)">
        <g id="Group_1094" data-name="Group 1094">
          <g id="Group_1093" data-name="Group 1093">
            <g id="Group_1087" data-name="Group 1087" transform="translate(0 0.337)">
              <path id="Path_658" data-name="Path 658" d="M-298.681,549.449V552.5h2.665c.323,0,.453-.37.546-.889h.113l-.165,2.481h-.1c-.049-.379-.134-.83-.393-.83h-2.665v3.013c0,.163.08.256.181.256h3.353c.634,0,1.02-.692,1.16-1.191h.122l-.381,1.941h-6.473v-.164c.424-.153.642-.369.642-1.028v-6.175c0-.691-.218-.9-.642-1.062v-.161h6.316a.278.278,0,0,0,.239-.1h.085l-.186,1.939h-.1c-.024-.345-.112-1.074-.489-1.074Z" transform="translate(300.718 -548.584)" fill="#967f30"/>
            </g>
            <g id="Group_1088" data-name="Group 1088" transform="translate(8.524 1.846)">
              <path id="Path_659" data-name="Path 659" d="M-282.722,558.036H-288V557.9a.718.718,0,0,0,.539-.783v-5.256c0-.579-.173-.744-.539-.89v-.135h2.218v.135c-.347.137-.544.326-.544.89v5.217c0,.26.093.33.242.33h2.492c.437,0,.843-.39,1.078-1h.094Z" transform="translate(288.004 -550.834)" fill="#967f30"/>
            </g>
            <g id="Group_1089" data-name="Group 1089" transform="translate(46.729)">
              <path id="Path_660" data-name="Path 660" d="M-225.721,556.971v.158h-2.606v-.158a.828.828,0,0,0,.644-.917v-6.571h-2.008c-.745,0-1.027.546-1.209,1.079h-.116l.174-1.886h7.637l.178,1.886h-.123c-.187-.533-.461-1.079-1.207-1.079h-2.008v6.571a.835.835,0,0,0,.645.917m18.574-7.04v.135c-.36.147-.547.32-.547.893v5.253a.726.726,0,0,0,.547.782v.135h-2.226v-.135a.729.729,0,0,0,.553-.782v-2.419h-4.269v2.419a.7.7,0,0,0,.55.782v.135h-2.228v-.135a.719.719,0,0,0,.554-.782v-5.253c0-.583-.187-.746-.554-.893v-.135h2.228v.135c-.345.136-.55.327-.55.893v2.195h4.269v-2.195c0-.573-.19-.746-.553-.893v-.135Zm1.186,5.09h.1a2.467,2.467,0,0,0,2.614,1.655c.966,0,2.049-.418,2.049-1.4,0-.832-.874-1.093-1.847-1.346-1.3-.337-2.733-.695-2.733-2.155,0-1.388,1.482-2.024,2.923-2.024a3.573,3.573,0,0,1,1.939.475c.051-.019.106-.03.248-.087h.105v1.584h-.105c-.122-1.169-1.556-1.344-2.2-1.344-.932,0-1.773.367-1.773,1.171,0,.591,1.18.878,1.72,1.027,1.3.34,2.869.832,2.869,2.523,0,1.673-1.7,2.257-3.333,2.218a4.137,4.137,0,0,1-2.562-.843Zm9.34-5.09v.135c-.349.136-.544.327-.544.893v5.291a.661.661,0,0,0,.544.745v.135h-2.221v-.135a.667.667,0,0,0,.54-.745v-5.291c0-.583-.173-.746-.54-.893v-.135Zm-1.236-1.85a.6.6,0,0,1,.56.65.593.593,0,0,1-.553.649.592.592,0,0,1-.553-.66.573.573,0,0,1,.546-.639m7.911,9.048h-5.287v-.135a.712.712,0,0,0,.543-.782v-5.253c0-.583-.177-.746-.543-.893v-.135h2.226v.135c-.353.136-.55.327-.55.893v5.215c0,.259.091.327.24.327h2.5c.436,0,.84-.384,1.074-1h.1Zm12.45,0h-.947l-5.857-6.793v5.718a.855.855,0,0,0,.64.917v.158h-2.162v-.158a.853.853,0,0,0,.65-.917v-6.332a.9.9,0,0,0-.65-.886v-.16h1.97l5.473,6.3v-5.2a.862.862,0,0,0-.638-.933v-.16h2.152v.16a.867.867,0,0,0-.63.933Zm7.2-1.411-.441-.988h-3.16l-.644,1.415c-.218.491.217.742.512.849v.135h-2.252v-.135c.262-.085.63-.26.992-1.026l2.541-5.535c-.036-.211-.461-.359-.573-.368v-.135h1.624l2.773,6.1a1.685,1.685,0,0,0,.973.959v.135h-2.7v-.135c.244-.1.723-.359.53-.842-.052-.143-.119-.282-.18-.434m-3.3-1.636h2.574L-172.3,551.2Zm6.74-4.318h.088c.068.166.259.166.385.166h5.177v.676l-4.618,5.894h3.619c.437,0,.833-.365,1.087-1h.088l-.286,1.626h-6.011v-.609l4.608-5.9H-166.2c-.3,0-.593.457-.711.892H-167Zm9.18.166v.135c-.357.136-.546.327-.546.893v5.291a.656.656,0,0,0,.546.745v.135H-159.9v-.135a.673.673,0,0,0,.539-.745v-5.291c0-.583-.18-.746-.539-.893v-.135Zm-1.238-1.85a.6.6,0,0,1,.556.65.593.593,0,0,1-.552.649.593.593,0,0,1-.552-.66.575.575,0,0,1,.549-.639m3.17,2.877c0-.583-.193-.757-.55-.893v-.135h3.863c1.56,0,2.312.861,2.312,1.955s-.783,1.955-2.33,1.955l2.014,2.4a2.614,2.614,0,0,0,.93.754v.135h-1.681l-3.12-3.743v-.164h1.7a1.22,1.22,0,0,0,1.191-1.336,1.2,1.2,0,0,0-1.191-1.315h-1.668c-.2,0-.343.008-.343.339v5.226c0,.551.181.735.547.859v.135H-156.3v-.135c.357-.124.55-.308.55-.859Zm12.653,6.171h-5.282v-.135a.71.71,0,0,0,.54-.782v-5.253c0-.583-.178-.746-.54-.893v-.135h2.22v.135c-.349.136-.549.327-.549.893v5.215c0,.259.093.327.241.327h2.493c.443,0,.843-.384,1.079-1h.1Zm3.266-7.2v.135c-.347.136-.546.327-.546.893v5.291a.658.658,0,0,0,.546.745v.135h-2.221v-.135a.668.668,0,0,0,.542-.745v-5.291c0-.583-.177-.746-.542-.893v-.135Zm-1.239-1.85a.6.6,0,0,1,.563.65.591.591,0,0,1-.552.649.593.593,0,0,1-.558-.66.574.574,0,0,1,.548-.639m6.239,5.8v2.429a.694.694,0,0,0,.55.686v.135h-2.237v-.135a.691.691,0,0,0,.558-.676v-2.149l-2.444-3.406c-.227-.3-.416-.6-.814-.7v-.135h2.359v.135c-.207.068-.51.2-.254.562l1.85,2.6,2.006-2.591c.261-.341.01-.513-.275-.573v-.135h1.95v.135a.835.835,0,0,0-.583.378Zm6.084-3.949v.135c-.35.136-.546.327-.546.893v5.291a.658.658,0,0,0,.546.745v.135h-2.225v-.135a.67.67,0,0,0,.542-.745v-5.291c0-.583-.176-.746-.542-.893v-.135Zm-1.242-1.85a.6.6,0,0,1,.556.65.589.589,0,0,1-.549.649.593.593,0,0,1-.556-.66.574.574,0,0,1,.548-.639m-89.6,1.608a5.7,5.7,0,0,0-2.367.558.451.451,0,0,0-.123-.062h-.1l.036,1.613h.106a2.136,2.136,0,0,1,2.277-1.472,2.889,2.889,0,0,1,2.889,3.116v.151h-5.844a2.116,2.116,0,0,0,0,.375v.228h.009a3.264,3.264,0,0,0,2.132,2.86l.007,0a4.478,4.478,0,0,0,1.064.147,3.685,3.685,0,0,0,3.926-3.744,3.735,3.735,0,0,0-4.014-3.774m.1,6.879a2.9,2.9,0,0,1-.884-.136,2.264,2.264,0,0,1-1.352-2.236h4.8a2.541,2.541,0,0,1-2.56,2.373" transform="translate(231.016 -548.081)" fill="#967f30"/>
            </g>
            <g id="Group_1091" data-name="Group 1091" transform="translate(28.478 1.85)">
              <g id="Group_1090" data-name="Group 1090">
                <path id="Path_661" data-name="Path 661" d="M-257.043,551.751c-.219-.516-.362-.6-.713-.691a1.722,1.722,0,0,0-.374-.033c-.088,0-.11-.044-.11-.1,0-.077.1-.088.243-.088.516,0,1.065.023,1.405.023.241,0,.747-.023,1.23-.023.121,0,.231.023.231.088s-.066.1-.154.1a.718.718,0,0,0-.373.065.206.206,0,0,0-.1.187,2.674,2.674,0,0,0,.22.7l1.625,4.184h.033c.418-.966,1.659-3.974,1.889-4.59a1.3,1.3,0,0,0,.088-.341c0-.1-.044-.131-.133-.165a1.467,1.467,0,0,0-.383-.044c-.089,0-.165-.033-.165-.1s.089-.088.274-.088c.484,0,.912.023,1.032.023.165,0,.615-.023.911-.023.121,0,.2.023.2.088s-.054.1-.154.1a.767.767,0,0,0-.472.11c-.121.088-.253.23-.505.823-.384.878-.637,1.384-1.164,2.526-.615,1.362-1.065,2.383-1.285,2.856-.242.537-.33.68-.461.68s-.209-.121-.395-.559Z" transform="translate(258.24 -550.84)" fill="#967f30"/>
              </g>
            </g>
            <g id="Group_1092" data-name="Group 1092" transform="translate(36.561 1.606)">
              <path id="Path_662" data-name="Path 662" d="M-243.051,550.477a5.688,5.688,0,0,0-2.367.558.65.65,0,0,0-.123-.062h-.1l.036,1.613h.105a2.139,2.139,0,0,1,2.276-1.472,2.888,2.888,0,0,1,2.889,3.117v.152h-5.843a2.017,2.017,0,0,0,0,.373v.228h.007a3.266,3.266,0,0,0,2.131,2.86l.011,0a4.413,4.413,0,0,0,1.062.149,3.686,3.686,0,0,0,3.925-3.744A3.735,3.735,0,0,0-243.051,550.477Zm.105,6.879a2.907,2.907,0,0,1-.884-.134,2.263,2.263,0,0,1-1.352-2.236h4.8A2.54,2.54,0,0,1-242.946,557.356Z" transform="translate(246.183 -550.477)" fill="#967f30"/>
            </g>
          </g>
        </g>
        <g id="Group_1095" data-name="Group 1095" transform="translate(14.642 1.985)">
          <path id="Path_663" data-name="Path 663" d="M-268.352,556.706l-1.215-4.687a.683.683,0,0,1,.507-.8l.023-.009v-.164H-271l-2.171,5.75-2.246-5.727-.009-.023h-1.978v.164l.023.009c.313.131.617.332.5.831l-1.222,4.81c-.219.855-.493.969-.735,1.068l-.039.015v.165h1.725v-.168l-.027-.007a.457.457,0,0,1-.3-.205.936.936,0,0,1,.031-.7l1.35-4.928,2.291,5.984.009.023h.844l2.307-6,1.329,4.909a.93.93,0,0,1,.023.711.472.472,0,0,1-.325.2l-.029.007v.17h2.1v-.165l-.034-.014C-267.818,557.827-268.089,557.715-268.352,556.706Z" transform="translate(278.878 -551.042)" fill="#967f30"/>
        </g>
      </g>
    </g>
    <rect id="Rectangle_20" data-name="Rectangle 20" width="260" height="130" transform="translate(3651 1701)" fill="none"/>
  </g>
</svg>
